<svg width="16" height="21" viewBox="0 0 16 21" fill="none" xmlns="http://www.w3.org/2000/svg">
<path d="M9.97931 17.6965L10.4674 17.1271L9.97931 17.6965ZM8.66631 16.7484L8.41645 17.4556L8.66631 16.7484ZM6.02069 17.6965L6.50879 18.266L6.02069 17.6965ZM7.33369 16.7484L7.58355 17.4556L7.33369 16.7484ZM1.34196 18.77L0.720189 19.1894L1.34196 18.77ZM3.22986 19.6383L3.14367 18.8933L3.22986 19.6383ZM14.658 18.77L15.2798 19.1894L14.658 18.77ZM12.7701 19.6383L12.8563 18.8933L12.7701 19.6383ZM11.5451 1.24472L11.3133 1.95801L11.5451 1.24472ZM14.7553 4.45492L14.042 4.68668L14.7553 4.45492ZM4.45492 1.24472L4.68668 1.95801L4.45492 1.24472ZM1.24472 4.45492L1.95801 4.68668L1.24472 4.45492ZM5 6.25C4.58579 6.25 4.25 6.58579 4.25 7C4.25 7.41421 4.58579 7.75 5 7.75V6.25ZM11 7.75C11.4142 7.75 11.75 7.41421 11.75 7C11.75 6.58579 11.4142 6.25 11 6.25V7.75ZM14.25 8V15.3874H15.75V8H14.25ZM1.75 15.3874V8H0.25V15.3874H1.75ZM10.4674 17.1271C9.87673 16.6208 9.43264 16.2237 8.91618 16.0413L8.41645 17.4556C8.60379 17.5218 8.80043 17.6739 9.49121 18.266L10.4674 17.1271ZM6.50879 18.266C7.19957 17.6739 7.39621 17.5218 7.58355 17.4556L7.08382 16.0413C6.56736 16.2237 6.12327 16.6208 5.5326 17.1271L6.50879 18.266ZM8.91618 16.0413C8.32335 15.8318 7.67665 15.8318 7.08382 16.0413L7.58355 17.4556C7.85302 17.3604 8.14698 17.3604 8.41645 17.4556L8.91618 16.0413ZM0.25 15.3874C0.25 16.333 0.249439 17.0872 0.29506 17.6664C0.339474 18.2302 0.433935 18.765 0.720189 19.1894L1.96372 18.3506C1.90802 18.268 1.8315 18.0701 1.79043 17.5486C1.75056 17.0425 1.75 16.3588 1.75 15.3874H0.25ZM5.5326 17.1271C4.79499 17.7593 4.27558 18.2038 3.86535 18.5029C3.44269 18.8111 3.24261 18.8818 3.14367 18.8933L3.31606 20.3833C3.82456 20.3245 4.29209 20.0482 4.74909 19.715C5.21852 19.3727 5.7908 18.8814 6.50879 18.266L5.5326 17.1271ZM0.720189 19.1894C1.2946 20.0409 2.2957 20.5014 3.31606 20.3833L3.14367 18.8933C2.67986 18.9469 2.22482 18.7376 1.96372 18.3506L0.720189 19.1894ZM14.25 15.3874C14.25 16.3588 14.2494 17.0425 14.2096 17.5486C14.1685 18.0701 14.092 18.268 14.0363 18.3506L15.2798 19.1894C15.5661 18.765 15.6605 18.2302 15.7049 17.6664C15.7506 17.0872 15.75 16.333 15.75 15.3874H14.25ZM9.49121 18.266C10.2092 18.8814 10.7815 19.3727 11.2509 19.715C11.7079 20.0482 12.1754 20.3245 12.6839 20.3833L12.8563 18.8933C12.7574 18.8818 12.5573 18.8111 12.1346 18.5029C11.7244 18.2038 11.205 17.7593 10.4674 17.1271L9.49121 18.266ZM14.0363 18.3506C13.7752 18.7376 13.3201 18.9469 12.8563 18.8933L12.6839 20.3833C13.7043 20.5014 14.7054 20.041 15.2798 19.1894L14.0363 18.3506ZM8 1.75C9.91966 1.75 10.7016 1.75925 11.3133 1.95801L11.7768 0.531425C10.8822 0.240747 9.80291 0.25 8 0.25V1.75ZM15.75 8C15.75 6.19709 15.7593 5.11777 15.4686 4.22315L14.042 4.68668C14.2407 5.29839 14.25 6.08034 14.25 8H15.75ZM11.3133 1.95801C12.6072 2.37841 13.6216 3.39282 14.042 4.68668L15.4686 4.22315C14.8998 2.47263 13.5274 1.1002 11.7768 0.531425L11.3133 1.95801ZM8 0.25C6.19709 0.25 5.11777 0.240747 4.22315 0.531425L4.68668 1.95801C5.29839 1.75925 6.08034 1.75 8 1.75V0.25ZM1.75 8C1.75 6.08034 1.75925 5.29839 1.95801 4.68668L0.531425 4.22315C0.240747 5.11777 0.25 6.19709 0.25 8H1.75ZM4.22315 0.531425C2.47263 1.1002 1.1002 2.47263 0.531425 4.22315L1.95801 4.68668C2.37841 3.39282 3.39282 2.37841 4.68668 1.95801L4.22315 0.531425ZM5 7.75H11V6.25H5V7.75Z" fill="#788A95"/>
</svg>
