<svg width="18" height="18" viewBox="0 0 18 18" fill="none" xmlns="http://www.w3.org/2000/svg">
<path d="M3.75018 0.00100708H6.00006C7.65681 0.00100708 8.99988 1.34408 8.99988 3.00083V5.2507C8.99988 6.90745 7.65681 8.25052 6.00006 8.25052H3.75018C2.09343 8.25052 0.750366 6.90745 0.750366 5.2507V3.00083C0.750366 1.34408 2.09343 0.00100708 3.75018 0.00100708Z" fill="#788A95"/>
<path d="M3.75018 9.75043H6.00006C7.65681 9.75043 8.99988 11.0935 8.99988 12.7502V15.0001C8.99988 16.6569 7.65681 17.9999 6.00006 17.9999H3.75018C2.09343 17.9999 0.750366 16.6569 0.750366 15.0001V12.7502C0.750366 11.0935 2.09343 9.75043 3.75018 9.75043Z" fill="#788A95"/>
<path d="M12.0997 4.19376L13.4615 2.83375V15.1673L12.0997 13.8073L12.0997 13.8072C11.7822 13.4902 11.2679 13.4906 10.9509 13.808L10.9509 13.8081C10.6339 14.1255 10.6343 14.6399 10.9517 14.9569L10.9517 14.9569L12.7288 16.7313L12.729 16.7314C13.5833 17.5813 14.9636 17.5813 15.8179 16.7314L15.8181 16.7313L17.5952 14.9569L17.5069 14.8684L17.5952 14.9569C17.9127 14.6399 17.913 14.1255 17.596 13.8081C17.279 13.4906 16.7647 13.4902 16.4473 13.8073L15.0854 15.1673V2.83375L16.4472 4.19376C16.7645 4.51079 17.2787 4.5106 17.5957 4.19334C17.9127 3.87609 17.9125 3.36191 17.5953 3.04488L17.5952 3.04485L15.8181 1.27048C14.9647 0.418145 13.5823 0.418141 12.7289 1.27047C12.7288 1.27047 12.7288 1.27048 12.7288 1.27048L10.9517 3.04485L10.9517 3.04488C10.6344 3.36191 10.6343 3.87609 10.9513 4.19334C11.2683 4.51059 11.7825 4.51079 12.0997 4.19379C12.0997 4.19378 12.0997 4.19377 12.0997 4.19376Z" fill="#788A95" stroke="#788A95" stroke-width="0.25"/>
</svg>
