<svg width="18" height="18" viewBox="0 0 18 18" fill="none" xmlns="http://www.w3.org/2000/svg">
<path d="M9.74712 9.80566C10.5269 9.37973 11.5945 8.79662 12.3007 7.77044C13.2221 6.43787 13.3544 4.65486 12.646 3.11749C11.9136 1.52812 10.4199 0.506329 8.54763 0.314282C6.53691 0.107692 4.45547 0.831056 2.83881 2.2981C0.994049 3.97214 -0.0139977 6.39205 0.000146855 9.11218C0.0234554 13.538 3.58688 17.1018 6.52157 17.1018C8.13305 17.1018 8.85741 16.4749 9.18114 15.9488C9.625 15.2276 9.60687 14.2363 9.13572 13.3029C8.17589 11.3359 8.43786 10.8484 8.98352 10.2796C9.09906 10.1599 9.42857 9.97978 9.74712 9.80566ZM8.24382 13.746C8.48866 14.2311 8.64046 14.9274 8.33287 15.427C7.98762 15.9882 7.15748 16.106 6.52177 16.106C4.05126 16.106 1.01616 12.8764 0.99644 9.107C0.983491 6.67354 1.87579 4.5176 3.50839 3.03601C4.91607 1.75862 6.71462 1.12789 8.44623 1.3054C9.95929 1.46059 11.1602 2.2732 11.7415 3.53445C12.2947 4.73515 12.1927 6.1755 11.4807 7.20506C10.9088 8.0362 9.99973 8.53285 9.2696 8.93169C8.83211 9.17075 8.48647 9.35941 8.26494 9.5905C7.24932 10.649 7.24334 11.6962 8.24382 13.746Z" fill="#3D4953"/>
<path d="M5.32304 11.5885C4.54888 11.5885 3.91895 12.2184 3.91895 12.9924C3.91895 13.7665 4.54888 14.3963 5.32304 14.3963C6.0972 14.3963 6.72693 13.7663 6.72693 12.9924C6.72693 12.2184 6.0972 11.5885 5.32304 11.5885ZM5.32304 13.6273C4.97301 13.6273 4.68833 13.3426 4.68833 12.9926C4.68833 12.6425 4.97321 12.3579 5.32304 12.3579C5.67307 12.3579 5.95775 12.6425 5.95775 12.9926C5.95775 13.3424 5.67307 13.6273 5.32304 13.6273Z" fill="#3D4953"/>
<path d="M6.45993 9.03628C6.45993 7.90731 5.54153 6.98871 4.41236 6.98871C3.28339 6.98871 2.36499 7.90731 2.36499 9.03628C2.36499 10.1653 3.28339 11.0838 4.41236 11.0838C5.54153 11.0838 6.45993 10.1653 6.45993 9.03628ZM3.36108 9.03628C3.36108 8.45635 3.83264 7.9848 4.41236 7.9848C4.99209 7.9848 5.46384 8.45655 5.46384 9.03628C5.46384 9.61601 4.99209 10.0878 4.41236 10.0878C3.83264 10.0878 3.36108 9.61601 3.36108 9.03628Z" fill="#3D4953"/>
<path d="M10.5851 5.17841C10.5851 3.78965 9.45537 2.65988 8.06662 2.65988C6.67787 2.65988 5.5481 3.78965 5.5481 5.17841C5.5481 6.56716 6.67787 7.69693 8.06662 7.69693C9.45537 7.69693 10.5851 6.56716 10.5851 5.17841ZM8.06682 6.70083C7.22731 6.70083 6.54439 6.01791 6.54439 5.17841C6.54439 4.3391 7.22731 3.65598 8.06682 3.65598C8.90633 3.65598 9.58925 4.3389 9.58925 5.17841C9.58905 6.01791 8.90633 6.70083 8.06682 6.70083Z" fill="#3D4953"/>
<path d="M17.7966 5.97786C17.954 5.49575 17.7229 4.9718 17.2607 4.76262C17.1292 4.70086 16.9877 4.67297 16.8503 4.67297C16.5096 4.67297 16.1789 4.84829 15.9936 5.15907C15.8681 5.37024 11.8407 12.467 11.8397 12.4688C11.4708 12.6403 11.1423 12.9019 10.9046 13.236C10.5097 13.7914 10.4121 14.449 10.6301 15.0873C11.0066 16.1934 10.348 17.366 10.3197 17.4154C10.2223 17.5861 10.2342 17.7983 10.3504 17.9569C10.4454 18.0866 10.5954 18.1605 10.7522 18.1605C10.7873 18.1605 10.8227 18.1569 10.8578 18.1491C10.8713 18.1461 12.3477 17.7838 13.2566 17.2835C13.2679 17.2773 13.2791 17.2706 13.29 17.2634C14.4296 16.5137 15.0615 15.6868 15.1683 14.8056C15.2081 14.4773 15.1707 14.1516 15.0629 13.8438C15.0631 13.8434 15.0631 13.8432 15.0633 13.8428C15.8761 11.8108 17.7209 6.21094 17.7966 5.97786ZM14.1794 14.6857C14.1108 15.2509 13.62 15.8505 12.7593 16.4203C12.4242 16.6022 11.9828 16.7683 11.5897 16.8982C11.7491 16.3127 11.8369 15.5423 11.573 14.766C11.4297 14.3464 11.5718 14.0163 11.7162 13.8133C11.9615 13.4685 12.3328 13.2422 12.8067 13.2422C13.2805 13.2422 13.609 13.4515 13.8267 13.6928C14.0445 13.9339 14.2367 14.2144 14.1794 14.6857ZM14.3877 12.8501C14.1148 12.6045 13.8028 12.4292 13.5154 12.3654C13.3675 12.3124 13.2125 12.278 13.0554 12.2602C14.2076 10.1077 16.7616 5.81669 16.8483 5.67305C16.7967 5.83163 15.2502 10.5635 14.3877 12.8501Z" fill="#3D4953"/>
</svg>
