<svg width="18" height="18" viewBox="0 0 18 18" fill="none" xmlns="http://www.w3.org/2000/svg">
<path d="M16.187 14.1791V3.82091C16.8405 3.61329 17.3155 3.0009 17.3155 2.27948C17.3155 1.38785 16.5901 0.662445 15.6984 0.662445C15.0242 0.662445 14.4453 1.0774 14.2029 1.6652H3.79687C3.55453 1.0774 2.97562 0.662445 2.30136 0.662445C1.40973 0.662445 0.684326 1.38785 0.684326 2.27951C0.684326 3.0009 1.15924 3.61332 1.81283 3.82091V14.1791C1.15927 14.3867 0.684326 14.9991 0.684326 15.7205C0.684326 16.6122 1.40973 17.3376 2.30139 17.3376C3.02278 17.3376 3.6352 16.8626 3.84283 16.2091H14.157C14.3647 16.8626 14.977 17.3376 15.6985 17.3376C16.5901 17.3376 17.3155 16.6122 17.3155 15.7205C17.3155 14.9991 16.8405 14.3867 16.187 14.1791ZM14.157 15.232H3.84279C3.68419 14.7327 3.28923 14.3377 2.78989 14.1791V3.82091C3.33043 3.64921 3.74835 3.20048 3.87686 2.64229H14.1229C14.2515 3.20048 14.6693 3.64921 15.2099 3.82091V14.1791C14.7105 14.3377 14.3156 14.7327 14.157 15.232ZM15.6984 1.63954C16.0513 1.63954 16.3384 1.92663 16.3384 2.27951C16.3384 2.63239 16.0513 2.91945 15.6984 2.91945C15.3456 2.91945 15.0585 2.63236 15.0585 2.27951C15.0585 1.92666 15.3456 1.63954 15.6984 1.63954ZM2.30136 1.63954C2.65424 1.63954 2.9413 1.92663 2.9413 2.27951C2.9413 2.63239 2.65424 2.91945 2.30136 2.91945C1.94848 2.91945 1.66142 2.63236 1.66142 2.27951C1.66142 1.92666 1.94851 1.63954 2.30136 1.63954ZM2.30136 16.3605C1.94848 16.3605 1.66138 16.0734 1.66138 15.7205C1.66138 15.3677 1.94848 15.0806 2.30136 15.0806C2.65424 15.0806 2.9413 15.3677 2.9413 15.7205C2.9413 16.0734 2.65424 16.3605 2.30136 16.3605ZM15.6984 16.3605C15.3456 16.3605 15.0585 16.0734 15.0585 15.7205C15.0585 15.3677 15.3456 15.0806 15.6984 15.0806C16.0513 15.0806 16.3384 15.3677 16.3384 15.7205C16.3384 16.0734 16.0513 16.3605 15.6984 16.3605Z" fill="#3D4953" stroke="#3D4953" stroke-width="0.25"/>
<path d="M6.40674 6.93401H8.3348V11.8231H9.72922V6.93401H11.6573V5.79782H6.40674V6.93401Z" fill="#3D4953"/>
</svg>
