<svg width="330" height="218" viewBox="0 0 330 218" fill="none" xmlns="http://www.w3.org/2000/svg">
<mask id="mask0_494_2281" style="mask-type:alpha" maskUnits="userSpaceOnUse" x="0" y="0" width="330" height="218">
<rect width="330" height="218" rx="15" fill="url(#paint0_radial_494_2281)"/>
</mask>
<g mask="url(#mask0_494_2281)">
<rect width="330" height="218" rx="15" fill="white"/>
<rect x="1.5" y="1.5" width="327" height="215" rx="13.5" stroke="#17B686" stroke-opacity="0.3" stroke-width="3"/>
<mask id="mask1_494_2281" style="mask-type:luminance" maskUnits="userSpaceOnUse" x="2" y="14" width="175" height="147">
<path d="M176.133 14H2.86768V161H176.133V14Z" fill="white"/>
</mask>
<g mask="url(#mask1_494_2281)">
<path d="M62.7475 94.0337H-22.356V151.777H62.7475V94.0337Z" fill="#E1EEED"/>
<path fill-rule="evenodd" clip-rule="evenodd" d="M10.6543 146.872H29.7365V123.603C29.7365 118.331 23.6183 115.225 20.1947 111.754C16.7698 115.225 10.6543 118.331 10.6543 123.603V146.872Z" fill="#C4D7D5"/>
<path fill-rule="evenodd" clip-rule="evenodd" d="M20.199 112.61C18.9797 113.789 17.5892 114.84 16.285 115.903C13.9739 117.853 11.2778 120.317 11.2778 123.596V146.865H29.1421V123.603C29.1446 122.871 29.0141 122.145 28.7571 121.46C27.4516 117.946 23.0033 115.246 20.199 112.61Z" fill="#E1EEED"/>
<path fill-rule="evenodd" clip-rule="evenodd" d="M12.0444 146.872H28.347V123.603C28.3517 122.966 28.2354 122.333 28.0045 121.738C27.2565 119.68 25.2454 117.904 23.5973 116.532C22.4849 115.589 21.3081 114.668 20.1957 113.682C19.0997 114.668 17.9284 115.589 16.7941 116.532C14.698 118.289 12.0458 120.603 12.0458 123.603L12.0444 146.872Z" fill="#C4D7D5"/>
<path fill-rule="evenodd" clip-rule="evenodd" d="M37.6743 151.778H52.5206V130.266C52.5206 127.031 50.1038 124.481 48.1996 122.574C47.1723 121.545 46.1022 120.56 45.0982 119.468C44.0926 120.565 43.0226 121.545 41.9952 122.574C40.0909 124.481 37.6743 127.031 37.6743 130.266V151.778Z" fill="#C4D7D5"/>
<path fill-rule="evenodd" clip-rule="evenodd" d="M44.5197 79.2073H-4.17152C-10.0624 51.5025 16.5587 49.8533 20.1522 37.6611C23.7894 49.8533 50.3818 51.5025 44.5197 79.2073Z" fill="#E1EEED"/>
<path d="M44.5198 79.2074H-4.17139V94.0336H44.5198V79.2074Z" fill="#E1EEED"/>
<path fill-rule="evenodd" clip-rule="evenodd" d="M13.0928 89.0847H16.5369V86.9428C16.5369 86.1074 15.9806 85.4432 15.5313 84.9505C15.2957 84.6942 15.0395 84.4362 14.8039 84.1575C14.5682 84.432 14.3339 84.6942 14.0764 84.9505C13.649 85.4432 13.0928 86.1074 13.0928 86.9428V89.0847Z" fill="#C4D7D5"/>
<path fill-rule="evenodd" clip-rule="evenodd" d="M2.58819 89.0847H5.60211V86.9428C5.60211 86.1074 5.11029 85.4432 4.72533 84.9505C4.51161 84.6942 4.2979 84.4362 4.08282 84.1575C3.89102 84.432 3.67183 84.6942 3.4636 84.9505C3.07864 85.4432 2.58545 86.1074 2.58545 86.9428L2.58819 89.0847Z" fill="#C4D7D5"/>
<path fill-rule="evenodd" clip-rule="evenodd" d="M7.74463 89.0847H11.0599V86.9428C11.0599 86.1074 10.5256 85.4432 10.1009 84.9505C9.88587 84.6942 9.62966 84.4362 9.41598 84.1575C9.18031 84.432 8.94469 84.6942 8.71042 84.9505C8.28162 85.4432 7.75145 86.1074 7.75145 86.9428L7.74463 89.0847Z" fill="#C4D7D5"/>
<path fill-rule="evenodd" clip-rule="evenodd" d="M21.9917 89.0847H18.3545V86.9428C18.3545 86.1074 18.9326 85.4432 19.4039 84.9505C19.6601 84.6942 19.9163 84.4362 20.1738 84.1575C20.4094 84.432 20.6876 84.6942 20.9218 84.9505C21.3931 85.4432 21.9917 86.1074 21.9917 86.9428V89.0847Z" fill="#C4D7D5"/>
<path fill-rule="evenodd" clip-rule="evenodd" d="M27.2555 89.0847H23.8101V86.9428C23.8101 86.1074 24.3676 85.4432 24.8156 84.9505C25.0513 84.6942 25.2869 84.4362 25.5225 84.1575C25.7582 84.432 26.0143 84.6942 26.25 84.9505C26.6993 85.4432 27.2555 86.1074 27.2555 86.9428V89.0847Z" fill="#C4D7D5"/>
<path fill-rule="evenodd" clip-rule="evenodd" d="M37.7593 89.0847H34.7207V86.9428C34.7207 86.1074 35.2125 85.4432 35.5975 84.9505C35.8112 84.6942 36.0468 84.4362 36.2386 84.1575C36.4537 84.432 36.6674 84.6942 36.8811 84.9505C37.2661 85.4432 37.7579 86.1074 37.7579 86.9428L37.7593 89.0847Z" fill="#C4D7D5"/>
<path fill-rule="evenodd" clip-rule="evenodd" d="M42.0166 89.0847H40.1768V86.9428C40.1768 86.1074 40.4754 85.4432 40.711 84.9505C40.8398 84.6942 40.9686 84.4362 41.096 84.1575C41.2248 84.432 41.3536 84.6942 41.4809 84.9505C41.7166 85.4432 42.0166 86.1074 42.0166 86.9428V89.0847Z" fill="#C4D7D5"/>
<path fill-rule="evenodd" clip-rule="evenodd" d="M32.5819 89.0847H29.2666V86.9428C29.2666 86.1074 29.8009 85.4432 30.2256 84.9505C30.4612 84.6942 30.6968 84.4362 30.9324 84.1575C31.1462 84.432 31.3818 84.6942 31.6175 84.9505C32.0463 85.4432 32.5764 86.1074 32.5764 86.9428L32.5819 89.0847Z" fill="#C4D7D5"/>
<path d="M44.5198 79.2074H-4.17139V80.15H44.5198V79.2074Z" fill="#C4D7D5"/>
<path d="M44.5198 92.0841H-4.17139V94.0337H44.5198V92.0841Z" fill="#C4D7D5"/>
<path d="M61.2277 86.1921H51.6655V94.0336H61.2277V86.1921Z" fill="#E1EEED"/>
<path d="M54.9806 87.9706H53.1831V94.0336H54.9806V87.9706Z" fill="#C4D7D5"/>
<path d="M59.7085 87.9706H57.9331V94.0336H59.7085V87.9706Z" fill="#C4D7D5"/>
<path fill-rule="evenodd" clip-rule="evenodd" d="M20.4524 26.3486V31.9233C20.6236 32.1373 20.7264 32.5448 20.7264 32.9949C20.7392 33.3258 20.673 33.6551 20.5332 33.9553C20.8332 34.2544 21.0251 34.9157 21.0251 35.691C21.0251 36.5265 20.7908 37.2332 20.4483 37.4897V44.7328H19.8921V37.4897C19.5496 37.2332 19.2934 36.5293 19.2934 35.691C19.2934 34.9199 19.5072 34.2544 19.8058 33.9553C19.6591 33.6568 19.5858 33.3275 19.5921 32.9949C19.5921 32.5448 19.7208 32.1373 19.8921 31.9233V26.328C18.975 26.2299 18.0915 25.9272 17.3065 25.4422C16.5215 24.9572 15.855 24.3022 15.356 23.5253C14.857 22.7484 14.5381 21.8695 14.4229 20.9529C14.3076 20.0364 14.3989 19.1057 14.69 18.2292C14.9811 17.3526 15.4647 16.5525 16.1051 15.8878C16.7455 15.223 17.5265 14.7104 18.3907 14.3876C19.2549 14.0648 20.1803 13.9401 21.099 14.0226C22.0176 14.1052 22.9062 14.3928 23.6992 14.8644C22.8398 14.6174 21.9283 14.6174 21.0689 14.8644C20.4327 15.0322 19.8359 15.3242 19.3128 15.7236C18.7896 16.1231 18.3504 16.6221 18.0203 17.192C17.6902 17.7619 17.4758 18.3915 17.3894 19.0446C17.3029 19.6978 17.3462 20.3616 17.5166 20.998C17.687 21.6343 17.9812 22.2307 18.3824 22.7528C18.7836 23.275 19.2838 23.7126 19.8544 24.0406C20.4249 24.3686 21.0545 24.5805 21.707 24.6641C22.3595 24.7477 23.0221 24.7014 23.6567 24.5279C24.5268 24.2984 25.3196 23.8398 25.9528 23.1997C25.5481 23.9197 25.0049 24.5522 24.3544 25.0605C23.7039 25.5687 22.9593 25.9427 22.1635 26.1606C21.6055 26.3078 21.029 26.3725 20.4524 26.3527V26.3486Z" fill="#E1EEED"/>
<path d="M176.132 127.287H131.57V161H176.132V127.287Z" fill="#E1EEED"/>
<path d="M176.132 121.888H131.57V127.287H176.132V121.888Z" fill="#E1EEED"/>
<path fill-rule="evenodd" clip-rule="evenodd" d="M159.553 122.891C159.37 122.891 159.189 122.926 159.02 122.996C158.851 123.066 158.698 123.168 158.569 123.298C158.44 123.427 158.337 123.581 158.268 123.75C158.198 123.919 158.162 124.1 158.163 124.283V127.284H160.964V124.283C160.96 123.912 160.809 123.557 160.545 123.296C160.281 123.035 159.924 122.889 159.553 122.891Z" fill="#C4D7D5"/>
<path fill-rule="evenodd" clip-rule="evenodd" d="M164.73 122.891C164.426 122.888 164.134 123.007 163.917 123.22C163.7 123.432 163.577 123.723 163.573 124.027V127.284H165.863V124.027C165.861 123.726 165.741 123.439 165.529 123.226C165.317 123.013 165.03 122.893 164.73 122.891Z" fill="#C4D7D5"/>
<path fill-rule="evenodd" clip-rule="evenodd" d="M169.308 122.891C169.006 122.892 168.716 123.011 168.5 123.224C168.284 123.436 168.159 123.724 168.152 124.027V127.284H170.463V124.027C170.46 123.723 170.337 123.433 170.12 123.22C169.904 123.007 169.612 122.889 169.308 122.891Z" fill="#C4D7D5"/>
<path fill-rule="evenodd" clip-rule="evenodd" d="M173.479 122.891C173.176 122.888 172.883 123.007 172.667 123.22C172.45 123.432 172.326 123.723 172.323 124.027V127.284H174.613V124.027C174.61 123.726 174.491 123.439 174.279 123.226C174.066 123.013 173.779 122.893 173.479 122.891Z" fill="#C4D7D5"/>
<path fill-rule="evenodd" clip-rule="evenodd" d="M153.862 122.891C154.096 122.89 154.328 122.935 154.545 123.024C154.762 123.113 154.959 123.245 155.124 123.41C155.29 123.576 155.421 123.773 155.51 123.991C155.599 124.208 155.644 124.44 155.643 124.675V127.29H152.07V124.675C152.071 124.439 152.119 124.206 152.209 123.989C152.3 123.773 152.433 123.576 152.6 123.41C152.767 123.244 152.965 123.113 153.182 123.024C153.4 122.935 153.633 122.89 153.867 122.891H153.862Z" fill="#C4D7D5"/>
<path fill-rule="evenodd" clip-rule="evenodd" d="M148.153 122.891C148.524 122.889 148.881 123.035 149.146 123.296C149.41 123.557 149.561 123.912 149.565 124.283V127.284H146.763V124.283C146.762 124.1 146.798 123.919 146.868 123.75C146.937 123.581 147.04 123.427 147.169 123.298C147.298 123.168 147.452 123.066 147.621 122.996C147.789 122.926 147.97 122.891 148.153 122.891Z" fill="#C4D7D5"/>
<path fill-rule="evenodd" clip-rule="evenodd" d="M142.994 122.891C143.296 122.892 143.586 123.012 143.802 123.224C144.018 123.436 144.142 123.724 144.149 124.027V127.284H141.838V124.027C141.841 123.723 141.965 123.432 142.181 123.22C142.398 123.007 142.69 122.888 142.994 122.891Z" fill="#C4D7D5"/>
<path fill-rule="evenodd" clip-rule="evenodd" d="M138.394 122.891C138.698 122.888 138.99 123.007 139.206 123.22C139.423 123.432 139.547 123.723 139.55 124.027V127.284H137.261V124.027C137.263 123.726 137.383 123.439 137.595 123.226C137.807 123.013 138.094 122.893 138.394 122.891Z" fill="#C4D7D5"/>
<path d="M135.378 121.888H131.57V127.287H135.378V121.888Z" fill="#C4D7D5"/>
<path fill-rule="evenodd" clip-rule="evenodd" d="M135.399 115.375H156.77C159.358 103.227 147.678 102.498 146.094 97.1415C144.512 102.492 132.83 103.227 135.397 115.375H135.399Z" fill="#E1EEED"/>
<path d="M156.771 115.375H135.399V121.888H156.771V115.375Z" fill="#E1EEED"/>
<path fill-rule="evenodd" clip-rule="evenodd" d="M146.887 119.724H145.304V118.782C145.304 118.417 145.561 118.117 145.753 117.904C145.86 117.796 145.988 117.69 146.095 117.56C146.202 117.69 146.309 117.796 146.416 117.904C146.631 118.117 146.887 118.417 146.887 118.782V119.724Z" fill="#C4D7D5"/>
<path fill-rule="evenodd" clip-rule="evenodd" d="M149.197 119.724H147.7V118.782C147.7 118.417 147.936 118.117 148.129 117.904C148.236 117.796 148.342 117.69 148.45 117.56C148.556 117.69 148.663 117.796 148.77 117.904C148.963 118.117 149.197 118.417 149.197 118.782V119.724Z" fill="#C4D7D5"/>
<path fill-rule="evenodd" clip-rule="evenodd" d="M153.819 119.724H152.492V118.782C152.492 118.417 152.706 118.117 152.877 117.904C152.963 117.796 153.048 117.69 153.151 117.56C153.231 117.684 153.323 117.799 153.425 117.904C153.596 118.117 153.811 118.417 153.811 118.782L153.819 119.724Z" fill="#C4D7D5"/>
<path fill-rule="evenodd" clip-rule="evenodd" d="M155.68 119.724H154.888V118.782C154.9 118.478 154.973 118.179 155.102 117.904C155.172 117.796 155.229 117.681 155.273 117.56C155.337 117.69 155.38 117.796 155.444 117.904C155.591 118.173 155.672 118.474 155.68 118.782V119.724Z" fill="#C4D7D5"/>
<path fill-rule="evenodd" clip-rule="evenodd" d="M151.551 119.724H150.096V118.782C150.096 118.417 150.332 118.117 150.507 117.904C150.614 117.796 150.721 117.69 150.827 117.56C150.916 117.685 151.017 117.799 151.128 117.904C151.319 118.117 151.555 118.417 151.555 118.782L151.551 119.724Z" fill="#C4D7D5"/>
<path fill-rule="evenodd" clip-rule="evenodd" d="M145.304 119.724H146.887V118.782C146.887 118.417 146.631 118.117 146.416 117.904C146.309 117.796 146.202 117.69 146.095 117.56C145.988 117.69 145.86 117.796 145.753 117.904C145.561 118.117 145.304 118.417 145.304 118.782V119.724Z" fill="#C4D7D5"/>
<path fill-rule="evenodd" clip-rule="evenodd" d="M142.994 119.724H144.492V118.782C144.492 118.417 144.256 118.117 144.064 117.904C143.951 117.795 143.844 117.68 143.742 117.56C143.636 117.69 143.529 117.796 143.422 117.904C143.23 118.117 142.994 118.417 142.994 118.782V119.724Z" fill="#C4D7D5"/>
<path fill-rule="evenodd" clip-rule="evenodd" d="M138.373 119.724H139.699V118.782C139.699 118.417 139.485 118.117 139.314 117.904C139.217 117.794 139.126 117.679 139.04 117.56C138.954 117.69 138.847 117.796 138.766 117.904C138.595 118.117 138.382 118.417 138.382 118.782L138.373 119.724Z" fill="#C4D7D5"/>
<path fill-rule="evenodd" clip-rule="evenodd" d="M136.509 119.724H137.301V118.782C137.293 118.474 137.212 118.173 137.065 117.904C137.023 117.796 136.958 117.69 136.894 117.56C136.852 117.69 136.787 117.796 136.744 117.904C136.598 118.173 136.517 118.474 136.509 118.782V119.724Z" fill="#C4D7D5"/>
<path fill-rule="evenodd" clip-rule="evenodd" d="M140.641 119.724H142.096V118.782C142.096 118.417 141.86 118.117 141.668 117.904C141.582 117.796 141.475 117.69 141.368 117.56C141.28 117.685 141.18 117.799 141.069 117.904C140.877 118.117 140.641 118.417 140.641 118.782V119.724Z" fill="#C4D7D5"/>
<path d="M156.771 115.375H135.399V115.803H156.771V115.375Z" fill="#C4D7D5"/>
<path d="M170.227 116.21H160.665V121.888H170.227V116.21Z" fill="#E1EEED"/>
<path d="M168.709 117.516H166.934V121.888H168.709V117.516Z" fill="#C4D7D5"/>
<path d="M163.981 117.516H162.183V121.888H163.981V117.516Z" fill="#C4D7D5"/>
<path d="M168.346 84.4143H162.548V93.3711H168.346V84.4143Z" fill="#E1EEED"/>
<path d="M167.425 86.449H166.334V93.3698H167.425V86.449Z" fill="#C4D7D5"/>
<path d="M164.557 86.449H163.466V93.3698H164.557V86.449Z" fill="#C4D7D5"/>
<path fill-rule="evenodd" clip-rule="evenodd" d="M163.403 83.3853H167.489C167.981 81.0718 165.756 80.9155 165.457 79.9141C165.157 80.921 162.91 81.0718 163.402 83.3853H163.403Z" fill="#E1EEED"/>
<path d="M167.491 83.3853H163.404V84.4143H167.491V83.3853Z" fill="#E1EEED"/>
<path fill-rule="evenodd" clip-rule="evenodd" d="M166.27 83.8131C166.216 83.8123 166.165 83.8318 166.125 83.8678C166.085 83.9038 166.061 83.9534 166.056 84.0067V84.4185H166.467V84.0067C166.467 83.9813 166.462 83.9563 166.453 83.9326C166.443 83.9093 166.429 83.8881 166.411 83.8699C166.393 83.8521 166.371 83.8377 166.348 83.828C166.324 83.8182 166.299 83.8131 166.274 83.8131H166.27Z" fill="#C4D7D5"/>
<path fill-rule="evenodd" clip-rule="evenodd" d="M166.997 83.8132C166.976 83.8136 166.954 83.8187 166.935 83.8276C166.916 83.8369 166.899 83.85 166.885 83.8661C166.871 83.8822 166.86 83.9009 166.854 83.9216C166.847 83.9419 166.845 83.9636 166.848 83.9847V84.4143H167.168V83.9847C167.171 83.9619 167.168 83.9386 167.16 83.917C167.152 83.8949 167.139 83.8754 167.123 83.8589C167.107 83.8424 167.087 83.8301 167.065 83.8221C167.043 83.814 167.02 83.811 166.997 83.8132Z" fill="#C4D7D5"/>
<path fill-rule="evenodd" clip-rule="evenodd" d="M165.457 83.8132C165.525 83.8149 165.589 83.8424 165.637 83.8907C165.685 83.9386 165.712 84.0034 165.713 84.0712V84.4143H165.199V84.0712C165.198 84.0368 165.204 84.0029 165.216 83.9712C165.229 83.939 165.248 83.9102 165.272 83.886C165.296 83.8614 165.325 83.8428 165.357 83.8301C165.389 83.8178 165.423 83.8119 165.457 83.8132Z" fill="#C4D7D5"/>
<path fill-rule="evenodd" clip-rule="evenodd" d="M164.644 83.8131C164.669 83.8131 164.694 83.8182 164.717 83.828C164.741 83.8377 164.762 83.8521 164.78 83.8699C164.798 83.8881 164.812 83.9093 164.822 83.9326C164.832 83.9563 164.837 83.9813 164.837 84.0067V84.4185H164.426V84.0067C164.43 83.9534 164.455 83.9038 164.494 83.8678C164.534 83.8318 164.586 83.8123 164.639 83.8131H164.644Z" fill="#C4D7D5"/>
<path fill-rule="evenodd" clip-rule="evenodd" d="M163.896 83.8132C163.918 83.8132 163.941 83.8175 163.962 83.8259C163.982 83.8348 164.001 83.8471 164.018 83.8632C164.033 83.8793 164.046 83.898 164.054 83.9191C164.063 83.9399 164.068 83.9624 164.067 83.9848V84.4144H163.745V83.9848C163.743 83.9636 163.745 83.942 163.751 83.9213C163.757 83.9005 163.768 83.8819 163.782 83.8653C163.797 83.8492 163.814 83.8365 163.834 83.8272C163.853 83.8183 163.874 83.8137 163.896 83.8132Z" fill="#C4D7D5"/>
<path d="M167.491 83.3853H163.404V83.4704H167.491V83.3853Z" fill="#C4D7D5"/>
<path d="M168.346 93.3698H162.548V116.21H168.346V93.3698Z" fill="#E1EEED"/>
<path fill-rule="evenodd" clip-rule="evenodd" d="M170.463 93.3698H160.43V95.0846H160.451C160.728 95.0859 161.002 95.1414 161.257 95.249C161.512 95.3562 161.744 95.5129 161.939 95.7099C162.134 95.9069 162.288 96.1403 162.392 96.397C162.497 96.6537 162.549 96.9287 162.547 97.2057H168.345C168.344 96.927 168.398 96.6508 168.504 96.3928C168.61 96.1348 168.766 95.9005 168.962 95.7031C169.159 95.5061 169.394 95.3498 169.651 95.2435C169.909 95.1376 170.185 95.0833 170.463 95.0846V93.3698Z" fill="#E1EEED"/>
<path d="M135.378 127.287H131.57V161H135.378V127.287Z" fill="#C4D7D5"/>
<path d="M127.054 70.1654H113.085V110.533H127.054V70.1654Z" fill="#E1EEED"/>
<path fill-rule="evenodd" clip-rule="evenodd" d="M115.137 67.7012H125.001C126.198 62.088 120.808 61.7669 120.08 59.2806C119.331 61.7669 113.962 62.088 115.139 67.7012H115.137Z" fill="#E1EEED"/>
<path d="M125.002 67.7012H115.14V70.1654H125.002V67.7012Z" fill="#E1EEED"/>
<path fill-rule="evenodd" clip-rule="evenodd" d="M122.028 68.7082C121.904 68.7094 121.785 68.7594 121.696 68.8476C121.608 68.9361 121.558 69.0556 121.557 69.1801V70.1655H122.516V69.1801C122.515 69.117 122.501 69.0543 122.476 68.9962C122.451 68.9382 122.414 68.8857 122.368 68.8416C122.323 68.7976 122.269 68.7632 122.21 68.7404C122.151 68.7175 122.088 68.7065 122.024 68.7082H122.028Z" fill="#C4D7D5"/>
<path fill-rule="evenodd" clip-rule="evenodd" d="M123.825 68.7082C123.773 68.7053 123.72 68.7133 123.671 68.7311C123.621 68.7489 123.576 68.7769 123.538 68.8129C123.499 68.8489 123.468 68.8925 123.447 68.9408C123.426 68.9891 123.415 69.0412 123.415 69.0937V70.1655H124.206V69.0937C124.207 69.0433 124.197 68.9929 124.178 68.9463C124.158 68.8993 124.13 68.8565 124.094 68.8209C124.058 68.7849 124.016 68.7565 123.969 68.7375C123.922 68.718 123.872 68.7082 123.822 68.7082H123.825Z" fill="#C4D7D5"/>
<path fill-rule="evenodd" clip-rule="evenodd" d="M120.081 68.7081C120.239 68.7115 120.389 68.7759 120.5 68.8878C120.612 68.9992 120.676 69.15 120.68 69.308V70.1654H119.46V69.308C119.465 69.1466 119.533 68.9933 119.649 68.8814C119.765 68.7692 119.92 68.7069 120.081 68.7081Z" fill="#C4D7D5"/>
<path fill-rule="evenodd" clip-rule="evenodd" d="M118.113 68.7082C118.238 68.7094 118.357 68.7594 118.445 68.8476C118.533 68.9361 118.583 69.0556 118.584 69.1801V70.1655H117.625V69.1801C117.626 69.117 117.64 69.0543 117.665 68.9962C117.691 68.9382 117.727 68.8857 117.773 68.8416C117.819 68.7976 117.872 68.7632 117.932 68.7404C117.991 68.7175 118.054 68.7065 118.117 68.7082H118.113Z" fill="#C4D7D5"/>
<path fill-rule="evenodd" clip-rule="evenodd" d="M116.338 68.7082C116.388 68.7082 116.439 68.718 116.485 68.7375C116.532 68.7565 116.575 68.7849 116.61 68.8209C116.646 68.8565 116.675 68.8993 116.694 68.9463C116.713 68.9929 116.723 69.0433 116.722 69.0937V70.1655H115.931V69.0937C115.931 69.0412 115.943 68.9891 115.964 68.9408C115.985 68.8925 116.015 68.8489 116.054 68.8129C116.092 68.7769 116.138 68.7489 116.187 68.7311C116.237 68.7133 116.289 68.7053 116.342 68.7082H116.338Z" fill="#C4D7D5"/>
<path d="M125.002 67.7012H115.14V67.8948H125.002V67.7012Z" fill="#C4D7D5"/>
<path d="M131.57 110.533H62.7471V151.778H131.57V110.533Z" fill="#E1EEED"/>
<path d="M108.7 100.397H62.7471V110.532H108.7V100.397Z" fill="#E1EEED"/>
<path fill-rule="evenodd" clip-rule="evenodd" d="M94.8801 103.74C94.2819 103.739 93.7079 103.975 93.2834 104.396C92.8585 104.818 92.6175 105.391 92.6128 105.99V110.533H97.1338V105.99C97.1338 105.393 96.897 104.821 96.4755 104.399C96.0544 103.977 95.4829 103.74 94.8868 103.74H94.8801Z" fill="#C4D7D5"/>
<path fill-rule="evenodd" clip-rule="evenodd" d="M103.16 103.74C102.673 103.743 102.207 103.939 101.863 104.283C101.519 104.628 101.324 105.095 101.32 105.582V110.533H104.999V105.582C104.996 105.095 104.801 104.628 104.457 104.283C104.112 103.939 103.647 103.743 103.16 103.74Z" fill="#C4D7D5"/>
<path fill-rule="evenodd" clip-rule="evenodd" d="M85.7227 103.74C86.0989 103.74 86.4721 103.814 86.8199 103.958C87.1677 104.102 87.4838 104.314 87.7502 104.581C88.0163 104.848 88.2277 105.164 88.3717 105.512C88.5157 105.861 88.5899 106.234 88.5899 106.612V110.533H82.8564V106.612C82.8564 105.85 83.1585 105.12 83.6961 104.581C84.2332 104.043 84.9623 103.74 85.7227 103.74Z" fill="#C4D7D5"/>
<path fill-rule="evenodd" clip-rule="evenodd" d="M76.5672 103.74C77.1654 103.739 77.7394 103.975 78.1639 104.396C78.5888 104.818 78.8298 105.391 78.8345 105.99V110.533H74.3135V105.99C74.3135 105.393 74.5503 104.821 74.9718 104.399C75.3929 103.977 75.9644 103.74 76.5604 103.74H76.5672Z" fill="#C4D7D5"/>
<path fill-rule="evenodd" clip-rule="evenodd" d="M68.2847 103.74C68.7714 103.743 69.2374 103.939 69.5818 104.283C69.9262 104.628 70.1211 105.095 70.1245 105.582V110.533H66.4448V105.582C66.4486 105.095 66.6435 104.628 66.9879 104.283C67.3319 103.939 67.7979 103.743 68.2847 103.74Z" fill="#C4D7D5"/>
<path d="M66.4483 100.397H62.7471V110.532H66.4483V100.397Z" fill="#C4D7D5"/>
<path fill-rule="evenodd" clip-rule="evenodd" d="M68.6518 89.9612H102.795C106.924 70.5496 88.2735 69.3927 85.7449 60.8218C83.1772 69.3927 64.5226 70.5496 68.6518 89.9612Z" fill="#E1EEED"/>
<path d="M102.795 89.963H68.6519V100.397H102.795V89.963Z" fill="#E1EEED"/>
<path fill-rule="evenodd" clip-rule="evenodd" d="M90.6864 96.9055H88.27V95.4059C88.27 94.8267 88.6809 94.3561 88.9754 94.0134C89.1465 93.8198 89.3181 93.6482 89.4892 93.4563C89.6384 93.6482 89.8315 93.8198 89.9811 94.0134C90.3013 94.3561 90.6864 94.8267 90.6864 95.4059V96.9055Z" fill="#C4D7D5"/>
<path fill-rule="evenodd" clip-rule="evenodd" d="M98.0674 96.9055H95.9497V95.4059C95.9497 94.8267 96.292 94.3561 96.5483 94.0134C96.6991 93.8198 96.8482 93.6482 96.9973 93.4563C97.1469 93.6482 97.2977 93.8198 97.4468 94.0134C97.7209 94.3561 98.0674 94.8267 98.0674 95.4059V96.9055Z" fill="#C4D7D5"/>
<path fill-rule="evenodd" clip-rule="evenodd" d="M101.042 96.9055H99.7788V95.4059C99.7886 94.9195 99.9135 94.4421 100.143 94.0134C100.228 93.8198 100.315 93.6482 100.399 93.4563C100.486 93.6482 100.593 93.8198 100.674 94.0134C100.903 94.4421 101.028 94.9195 101.038 95.4059L101.042 96.9055Z" fill="#C4D7D5"/>
<path fill-rule="evenodd" clip-rule="evenodd" d="M94.4303 96.9055H92.1016V95.4059C92.1016 94.8267 92.4862 94.3561 92.7866 94.0134C92.9577 93.8198 93.1289 93.6482 93.278 93.4563C93.4275 93.6482 93.5987 93.8198 93.7698 94.0134C94.0702 94.3561 94.4332 94.8267 94.4332 95.4059L94.4303 96.9055Z" fill="#C4D7D5"/>
<path fill-rule="evenodd" clip-rule="evenodd" d="M84.4404 96.9055H87.0064V95.4059C87.0064 94.8267 86.5789 94.3561 86.2582 94.0134C86.0871 93.8198 85.8939 93.6482 85.7228 93.4563C85.5529 93.6482 85.3597 93.8198 85.1886 94.0134C84.8679 94.3561 84.4404 94.8267 84.4404 95.4059V96.9055Z" fill="#C4D7D5"/>
<path fill-rule="evenodd" clip-rule="evenodd" d="M80.7607 96.9055H83.1771V95.4059C83.1771 94.8267 82.7662 94.3561 82.4718 94.0134C82.3002 93.8198 82.1291 93.6482 81.9579 93.4563C81.8088 93.6482 81.6156 93.8198 81.4661 94.0134C81.1454 94.3561 80.7607 94.8267 80.7607 95.4059V96.9055Z" fill="#C4D7D5"/>
<path fill-rule="evenodd" clip-rule="evenodd" d="M73.3794 96.9055H75.5192V95.4059C75.5192 94.8267 75.1769 94.3561 74.8985 94.0134C74.7477 93.8198 74.5986 93.6482 74.4491 93.4563C74.2987 93.6482 74.1491 93.8198 74 94.0134C73.7259 94.3561 73.3794 94.8267 73.3794 95.4059V96.9055Z" fill="#C4D7D5"/>
<path fill-rule="evenodd" clip-rule="evenodd" d="M70.4053 96.9055H71.6889V95.4059C71.6732 94.9174 71.5415 94.44 71.3038 94.0134C71.2191 93.8198 71.1326 93.6482 71.0479 93.4563C70.9615 93.6482 70.8547 93.8198 70.7738 94.0134C70.6243 94.3561 70.4095 94.8267 70.4095 95.4059L70.4053 96.9055Z" fill="#C4D7D5"/>
<path fill-rule="evenodd" clip-rule="evenodd" d="M77.0166 96.9055H79.3453V95.4059C79.3453 94.8267 78.9603 94.3561 78.6603 94.0134C78.4892 93.8198 78.3396 93.6482 78.1685 93.4563C78.0194 93.6482 77.8482 93.8198 77.6767 94.0134C77.3767 94.3561 77.0137 94.8267 77.0137 95.4059L77.0166 96.9055Z" fill="#C4D7D5"/>
<path d="M102.795 89.963H68.6519V90.6268H102.795V89.963Z" fill="#C4D7D5"/>
<path d="M102.795 99.176H68.6519V100.377H102.795V99.176Z" fill="#C4D7D5"/>
<path fill-rule="evenodd" clip-rule="evenodd" d="M99.9072 131.144C98.7701 131.149 97.6814 131.605 96.8795 132.412C96.0775 133.219 95.6276 134.312 95.6289 135.451V151.778H104.207V135.451C104.207 134.309 103.754 133.214 102.948 132.406C102.141 131.598 101.048 131.144 99.9072 131.144Z" fill="#C4D7D5"/>
<path fill-rule="evenodd" clip-rule="evenodd" d="M113.579 131.144C112.689 131.149 111.838 131.505 111.209 132.135C110.58 132.764 110.224 133.617 110.219 134.508V151.778H116.932V134.508C116.931 133.616 116.577 132.762 115.947 132.131C115.318 131.501 114.465 131.146 113.574 131.144H113.579Z" fill="#C4D7D5"/>
<path fill-rule="evenodd" clip-rule="evenodd" d="M125.96 131.144H125.939C125.211 131.15 124.515 131.444 124.002 131.962C123.488 132.479 123.2 133.179 123.199 133.909V151.778H128.7V133.909C128.699 133.179 128.411 132.479 127.898 131.962C127.385 131.444 126.688 131.15 125.96 131.144Z" fill="#C4D7D5"/>
<path fill-rule="evenodd" clip-rule="evenodd" d="M99.9072 131.144C101.048 131.144 102.141 131.598 102.948 132.406C103.754 133.214 104.207 134.309 104.207 135.451V151.778H95.6289V135.451C95.6276 134.312 96.0775 133.219 96.8795 132.412C97.6814 131.605 98.7701 131.149 99.9072 131.144Z" fill="#C4D7D5"/>
<path d="M131.57 118.911H62.7471V120.025H131.57V118.911Z" fill="#C4D7D5"/>
<path fill-rule="evenodd" clip-rule="evenodd" d="M120.206 53.7391V56.5381C120.312 56.6966 120.364 56.8842 120.356 57.0744C120.358 57.2447 120.322 57.4133 120.249 57.5671C120.398 57.7167 120.505 58.0378 120.505 58.4233C120.505 58.8528 120.378 59.2163 120.206 59.3455V62.9883H119.932V59.3455C119.761 59.2163 119.632 58.8528 119.632 58.4233C119.632 58.0378 119.739 57.7167 119.889 57.5671C119.817 57.4129 119.78 57.2447 119.782 57.0744C119.773 56.8842 119.826 56.6961 119.932 56.5381V53.7103C119.308 53.6476 118.719 53.3938 118.244 52.9836C117.769 52.5734 117.432 52.0265 117.279 51.4176C117.114 50.8203 117.132 50.1872 117.33 49.6002C117.528 49.0132 117.898 48.4995 118.392 48.1254C118.885 47.7514 119.479 47.5343 120.097 47.5024C120.715 47.4705 121.328 47.6251 121.857 47.9462C121.485 47.8428 121.093 47.8269 120.713 47.8996C120.333 47.9723 119.975 48.1318 119.666 48.3657C119.358 48.5996 119.108 48.9015 118.934 49.2481C118.761 49.5946 118.67 49.9764 118.669 50.3639C118.667 50.7513 118.755 51.1339 118.925 51.482C119.094 51.8301 119.342 52.1343 119.648 52.3709C119.955 52.6076 120.311 52.7703 120.691 52.8465C121.07 52.9227 121.462 52.9103 121.835 52.8102C122.268 52.6841 122.664 52.4564 122.991 52.1461C122.714 52.6384 122.309 53.0464 121.818 53.3268C121.328 53.6072 120.771 53.7497 120.206 53.7391Z" fill="#E1EEED"/>
<path d="M66.4483 110.533H62.7471V151.778H66.4483V110.533Z" fill="#C4D7D5"/>
<path fill-rule="evenodd" clip-rule="evenodd" d="M83.498 131.144C84.3885 131.145 85.2421 131.5 85.8716 132.131C86.5011 132.762 86.8557 133.616 86.857 134.508V151.778H80.1445V134.508C80.1492 133.618 80.5046 132.765 81.1333 132.135C81.762 131.505 82.613 131.149 83.5022 131.144H83.498Z" fill="#C4D7D5"/>
<path fill-rule="evenodd" clip-rule="evenodd" d="M71.1324 131.144C71.4938 131.145 71.8513 131.217 72.1847 131.357C72.5177 131.497 72.8202 131.7 73.0748 131.957C73.3294 132.214 73.5306 132.519 73.6674 132.853C73.8043 133.188 73.8742 133.547 73.8725 133.909V151.778H68.375V133.909C68.3767 133.176 68.6677 132.474 69.185 131.956C69.7018 131.438 70.4025 131.146 71.1341 131.144H71.1324Z" fill="#C4D7D5"/>
<path fill-rule="evenodd" clip-rule="evenodd" d="M44.5197 79.2073H-4.17152C-10.0624 51.5025 16.5587 49.8533 20.1522 37.6611C23.7894 49.8533 50.3818 51.5025 44.5197 79.2073Z" fill="#C4D7D5"/>
<path fill-rule="evenodd" clip-rule="evenodd" d="M44.5201 79.2073H25.679C20.9512 73.1223 17.8921 63.652 17.8921 52.9816C17.8921 47.4535 18.7045 42.2466 20.1594 37.6611C23.7966 49.8533 50.3889 51.5025 44.5269 79.2073H44.5201Z" fill="#E1EEED"/>
<path fill-rule="evenodd" clip-rule="evenodd" d="M102.795 89.9612H68.6519C64.5228 70.5496 83.1731 69.3927 85.723 60.8218C88.2694 69.3927 106.924 70.5496 102.795 89.9612Z" fill="#C4D7D5"/>
<path fill-rule="evenodd" clip-rule="evenodd" d="M102.795 89.9613H89.5733C86.2579 85.719 84.1182 79.0562 84.1182 71.5757C84.1182 67.6969 84.6964 64.0295 85.7225 60.8188C88.2689 69.3902 106.924 70.5467 102.795 89.9587V89.9613Z" fill="#E1EEED"/>
<path fill-rule="evenodd" clip-rule="evenodd" d="M156.772 115.375H135.4C132.833 103.227 144.515 102.498 146.097 97.1415C147.681 102.493 159.361 103.227 156.773 115.375H156.772Z" fill="#C4D7D5"/>
<path fill-rule="evenodd" clip-rule="evenodd" d="M156.772 115.375H148.513C146.438 112.718 145.089 108.561 145.089 103.869C145.078 101.589 145.417 99.3219 146.094 97.1458C147.678 102.497 159.358 103.231 156.77 115.379L156.772 115.375Z" fill="#E1EEED"/>
</g>
<mask id="mask2_494_2281" style="mask-type:alpha" maskUnits="userSpaceOnUse" x="3" y="3" width="324" height="212">
<rect x="3" y="3" width="324" height="212" rx="11" fill="white"/>
<rect x="4.5" y="4.5" width="321" height="209" rx="9.5" stroke="#17B686" stroke-opacity="0.3" stroke-width="3"/>
</mask>
<g mask="url(#mask2_494_2281)">
<path d="M113 133.614C-26.1997 119.614 -35.333 192.78 -22.4997 231.114V276.114H351.5V20.6136C340 12.4469 315.2 2.81357 308 29.6136C299 63.1136 287 151.114 113 133.614Z" fill="#E8F8F3"/>
<g clip-path="url(#clip0_494_2281)">
<path opacity="0.1" d="M59.3742 323.507L-33.3455 270.044C-42.5487 264.723 -41.4031 255.431 -30.7996 249.295L179.373 127.948C190.014 121.799 206.104 121.137 215.32 126.458L308.027 179.921C317.001 185.636 316.084 194.521 305.481 200.67L95.2579 322.017C84.6162 328.153 68.5265 328.827 59.3742 323.507Z" fill="#17B686"/>
<path d="M311.413 157.938C310.063 156.932 310.063 156.932 308.79 156.105L215.218 102.069C205.913 96.6973 189.67 97.3719 178.94 103.571L-32.5436 225.67C-34.0525 226.542 -35.4685 227.565 -36.7697 228.725C-38.8952 230.652 -40.5825 233.013 -41.7178 235.648C-42.8531 238.283 -43.4099 241.131 -43.3507 244C-43.3507 254.183 -37.8771 257.836 -37.8771 257.836C-36.9989 258.546 -36.081 259.205 -35.1276 259.81L58.4449 313.832C67.7499 319.204 84.1452 318.606 94.8759 312.407L306.397 190.308C306.957 189.977 307.492 189.633 308.001 189.29C308.001 189.29 317.905 183.421 317.905 172.907C317.964 170.092 317.414 167.297 316.294 164.713C315.173 162.13 313.508 159.819 311.413 157.938Z" fill="#237C62"/>
<path d="M74.382 318.148C68.7232 318.309 63.1177 317.016 58.1013 314.392L-35.4585 260.37C-36.4403 259.746 -37.3879 259.071 -38.2971 258.346C-38.488 258.218 -43.9998 254.374 -43.9998 244.013C-44.0748 241.042 -43.5035 238.091 -42.3254 235.364C-41.1474 232.636 -39.3907 230.197 -37.1769 228.216H-37.0751C-35.774 227.069 -34.3626 226.055 -32.8617 225.186L178.66 103.087C189.556 96.7991 206.117 96.1245 215.574 101.585L309.147 155.608C310.42 156.474 310.42 156.474 311.833 157.492C314.005 159.432 315.728 161.821 316.882 164.494C318.036 167.167 318.593 170.06 318.516 172.971C318.516 183.714 308.714 189.659 308.332 189.901C307.95 190.143 307.289 190.588 306.716 190.919L95.1815 312.967C88.8019 316.435 81.643 318.218 74.382 318.148ZM-36.5023 229.298C-38.5153 231.189 -40.1094 233.481 -41.1815 236.027C-42.2537 238.573 -42.7801 241.315 -42.7269 244.076C-42.7269 253.712 -37.6352 257.353 -37.5334 257.391C-36.6627 258.085 -35.7578 258.735 -34.822 259.339L58.7505 313.361C67.941 318.657 83.9925 318.02 94.5451 311.936L306.067 189.773C306.618 189.442 307.14 189.111 307.632 188.781C307.76 188.704 317.256 182.938 317.256 172.92C317.312 170.206 316.79 167.512 315.723 165.016C314.656 162.521 313.07 160.281 311.069 158.447C309.733 157.454 309.733 157.454 308.523 156.626L214.976 102.616C205.862 97.3592 189.874 98.0339 179.334 104.131L-32.2762 226.255C-33.7429 227.108 -35.1203 228.106 -36.3877 229.234C-36.4226 229.261 -36.4612 229.282 -36.5023 229.298Z" fill="#237C62"/>
<path d="M309.427 156.346L306.97 167.803L214.671 114.518C205.455 109.21 189.365 109.872 178.723 116.02L-24.6387 233.473L-35.5858 227.299C-37.6939 229.21 -39.3668 231.551 -40.4912 234.164C-41.6156 236.778 -42.1654 239.602 -42.1032 242.447C-42.1032 252.49 -36.6805 256.156 -36.6805 256.156C-35.8085 256.854 -34.8992 257.505 -33.9565 258.104L58.7632 311.567C67.9664 316.887 84.0562 316.225 94.6978 310.077L304.87 188.742C305.443 188.411 305.965 188.08 306.474 187.737C306.474 187.737 316.428 181.983 316.428 171.571C316.496 168.668 315.9 165.788 314.687 163.149C313.474 160.511 311.675 158.185 309.427 156.346Z" fill="#17B686"/>
<path d="M309.198 156.474L306.728 167.93L214.454 114.658C205.238 109.337 189.148 109.999 178.507 116.148L-24.9316 233.6L-35.8788 227.426C-37.9868 229.337 -39.6597 231.678 -40.7842 234.292C-41.9086 236.905 -42.4583 239.73 -42.3961 242.574C-42.3961 252.63 -36.9735 256.284 -36.9735 256.284C-36.102 256.986 -35.1926 257.641 -34.2494 258.244L58.4575 311.77C67.6735 317.078 83.7632 316.416 94.4048 310.281L304.577 188.933C305.137 188.602 305.659 188.271 306.168 187.928C306.168 187.928 316.135 182.174 316.135 171.762C316.22 168.853 315.639 165.964 314.437 163.314C313.234 160.665 311.442 158.325 309.198 156.474Z" fill="#1AC995"/>
<path d="M307.275 166.428L306.97 167.841L285.254 155.315C247.524 159.071 174.153 187.533 174.153 187.533L79.6387 264.239L75.3108 297.043C75.0912 298.705 75.4316 300.394 76.2782 301.842C76.8169 302.766 77.1552 303.794 77.2711 304.858L77.4111 306.22V309.835C77.4125 310.977 77.0857 312.096 76.4696 313.057C75.8535 314.018 74.974 314.782 73.936 315.258C81.1597 315.381 88.2915 313.626 94.6338 310.166L304.806 188.831C305.379 188.501 305.901 188.17 306.41 187.826C306.41 187.8 311.947 183.6 307.275 166.428Z" fill="#17B686"/>
<path d="M74.3054 315.538C68.8249 315.693 63.3957 314.444 58.5338 311.91L-34.1731 258.384C-35.1338 257.784 -36.0563 257.125 -36.9353 256.411C-37.1517 256.271 -42.4853 252.592 -42.4853 242.409C-42.5349 239.517 -41.968 236.647 -40.8223 233.992C-39.6766 231.336 -37.9783 228.955 -35.8406 227.006C-35.7887 226.969 -35.7264 226.949 -35.6624 226.949C-35.5985 226.949 -35.5361 226.969 -35.4842 227.006L-24.7026 233.091L178.583 115.727C189.288 109.541 205.556 108.879 214.836 114.238L306.754 167.294L309.121 156.245C309.132 156.194 309.155 156.146 309.188 156.106C309.222 156.066 309.264 156.035 309.312 156.015C309.359 155.991 309.412 155.978 309.465 155.978C309.518 155.978 309.571 155.991 309.618 156.015C311.894 157.903 313.712 160.283 314.936 162.975C316.16 165.667 316.757 168.602 316.683 171.558C316.683 182.034 306.665 187.94 306.563 187.991C305.964 188.399 305.455 188.717 304.972 188.997L94.7994 310.421C88.514 313.841 81.4606 315.602 74.3054 315.538ZM-35.6115 227.706C-37.6189 229.6 -39.2102 231.891 -40.2841 234.433C-41.3579 236.975 -41.8908 239.713 -41.8488 242.472C-41.8488 252.21 -36.6171 255.876 -36.5662 255.914C-35.7004 256.615 -34.7952 257.265 -33.8549 257.862L58.8521 311.388C67.9662 316.645 83.9414 315.971 94.4939 309.899L304.666 188.551C305.15 188.271 305.634 187.966 306.245 187.558C306.359 187.495 316.059 181.767 316.059 171.66C316.128 168.892 315.595 166.143 314.496 163.602C313.397 161.061 311.758 158.789 309.694 156.945L307.339 167.892C307.331 167.942 307.31 167.989 307.279 168.029C307.248 168.069 307.207 168.101 307.161 168.121C307.115 168.142 307.065 168.154 307.015 168.154C306.964 168.154 306.914 168.142 306.868 168.121L214.581 114.836C205.48 109.579 189.505 110.241 178.94 116.326L-24.5371 233.753C-24.5865 233.777 -24.641 233.79 -24.6962 233.79C-24.7514 233.79 -24.8059 233.777 -24.8553 233.753L-35.6115 227.706Z" fill="#237C62"/>
<path d="M58.6994 298.557L-34.0203 245.031C-43.2235 239.71 -42.0779 230.418 -31.4744 224.282L178.698 102.935C189.339 96.7864 205.429 96.1245 214.645 101.445L307.39 154.972C316.364 160.687 315.448 169.572 304.844 175.72L94.634 297.068C83.9924 303.204 67.9026 303.904 58.6994 298.557Z" fill="#34B08B"/>
<path opacity="0.6" d="M-31.4363 224.219C-42.0779 230.367 -43.2235 239.659 -33.9821 244.98L-15.8302 255.533L32.1844 187.558L-31.4363 224.219Z" fill="white"/>
<path opacity="0.6" d="M304.743 175.746C315.384 169.598 316.301 160.7 307.288 154.997L294.699 147.729L254.386 204.794L304.743 175.746Z" fill="white"/>
<path opacity="0.6" d="M214.467 101.509C205.264 96.1881 189.174 96.85 178.532 102.998L115.828 139.2L19.2261 275.899L58.483 298.557C67.6989 303.878 83.7887 303.203 94.4303 297.068L190.027 241.874L267.573 132.059L214.467 101.509Z" fill="white"/>
<path d="M74.3055 302.452C68.8245 302.597 63.3968 301.345 58.5339 298.812L-34.173 245.349C-38.2845 242.969 -40.5376 239.672 -40.5376 236.057C-40.5376 231.703 -37.2789 227.325 -31.6271 224.04L178.583 102.655C189.289 96.4682 205.556 95.8062 214.836 101.165L307.594 154.692C311.718 157.327 313.959 160.763 313.869 164.379C313.78 168.617 310.636 172.754 304.959 176L94.7995 297.335C88.5141 300.755 81.4607 302.516 74.3055 302.452ZM58.8522 298.277C67.9663 303.534 83.9415 302.872 94.494 296.788L304.666 175.44C310.089 172.309 313.118 168.376 313.208 164.366C313.284 160.98 311.158 157.734 307.238 155.239L214.531 101.713C205.429 96.4554 189.454 97.1301 178.889 103.215L-31.2707 224.55C-36.7697 227.719 -39.9139 231.907 -39.9139 236.006C-39.9139 239.379 -37.7626 242.485 -33.8548 244.738L58.8522 298.277Z" fill="#3D4953"/>
<path d="M64.1604 294.433L-26.8663 241.874C-33.3837 238.055 -32.569 231.551 -25.046 227.197L184.121 106.41C191.644 102.069 203.011 101.598 209.579 105.366L300.606 157.912C307.123 161.731 306.296 168.248 298.785 172.589L89.5679 293.377C82.0449 297.717 70.6777 298.188 64.1604 294.433Z" fill="#B4E8D8"/>
<path opacity="0.9" d="M298.849 172.423C306.372 168.083 307.187 161.515 300.669 157.747L292.968 153.304L266.109 191.314L298.849 172.423Z" fill="white"/>
<path opacity="0.9" d="M209.808 105.328C203.303 101.509 191.923 102.031 184.349 106.372L111.996 148.149L24.814 271.622L64.3382 294.446C70.8555 298.201 82.2355 297.73 89.7966 293.389L202.017 228.598L266.096 137.876L209.808 105.328Z" fill="white"/>
<path opacity="0.9" d="M-25.0337 227.337C-32.5439 231.678 -33.3713 238.246 -26.854 242.014L-10.6369 251.383L27.9708 196.736L-25.0337 227.337Z" fill="white"/>
<path d="M75.1965 297.272C71.3065 297.393 67.4502 296.517 63.9948 294.726L-27.0318 242.18C-29.9596 240.474 -31.5762 238.119 -31.5762 235.522C-31.5762 232.416 -29.2595 229.298 -25.2116 226.955L183.993 106.168C191.631 101.776 203.087 101.305 209.732 105.111L300.746 157.67C303.686 159.363 305.303 161.718 305.303 164.315C305.303 167.421 302.986 170.552 298.938 172.894L89.7333 293.72C85.2669 296.116 80.2648 297.339 75.1965 297.272ZM198.543 103.138C193.579 103.098 188.686 104.32 184.324 106.69L-24.8806 227.528C-28.6994 229.756 -30.9397 232.62 -30.9397 235.548C-30.9397 237.903 -29.4377 240.067 -26.7136 241.645L64.3131 294.204C70.6777 297.908 81.994 297.437 89.4151 293.147L298.684 172.309C302.502 170.081 304.743 167.217 304.743 164.289C304.743 161.935 303.241 159.771 300.504 158.192L209.49 105.633C206.113 103.881 202.345 103.022 198.543 103.138Z" fill="#3D4953"/>
<path d="M200.808 116.669C199.844 117.159 198.778 117.414 197.696 117.414C196.614 117.414 195.548 117.159 194.584 116.669C192.865 115.677 192.865 114.124 194.584 113.08C195.548 112.59 196.614 112.335 197.696 112.335C198.778 112.335 199.844 112.59 200.808 113.08C202.527 114.073 202.527 115.677 200.808 116.669Z" fill="#34B08B"/>
<path d="M200.808 116.669C199.844 117.159 198.778 117.414 197.696 117.414C196.614 117.414 195.548 117.159 194.584 116.669C192.865 115.677 192.865 114.124 194.584 113.08C195.548 112.59 196.614 112.335 197.696 112.335C198.778 112.335 199.844 112.59 200.808 113.08C202.527 114.073 202.527 115.677 200.808 116.669Z" fill="white"/>
<path d="M199.497 116.886C198.963 117.157 198.372 117.298 197.773 117.298C197.173 117.298 196.583 117.157 196.048 116.886C195.84 116.814 195.659 116.68 195.531 116.501C195.403 116.321 195.334 116.107 195.334 115.887C195.334 115.667 195.403 115.452 195.531 115.273C195.659 115.094 195.84 114.959 196.048 114.887C196.583 114.617 197.173 114.476 197.773 114.476C198.372 114.476 198.963 114.617 199.497 114.887C199.706 114.959 199.886 115.094 200.014 115.273C200.142 115.452 200.211 115.667 200.211 115.887C200.211 116.107 200.142 116.321 200.014 116.501C199.886 116.68 199.706 116.814 199.497 116.886Z" fill="#B4E8D8"/>
<path d="M199.497 116.886C198.963 117.157 198.372 117.298 197.773 117.298C197.173 117.298 196.583 117.157 196.048 116.886C195.84 116.814 195.659 116.68 195.531 116.501C195.403 116.321 195.334 116.107 195.334 115.887C195.334 115.667 195.403 115.452 195.531 115.273C195.659 115.094 195.84 114.959 196.048 114.887C196.583 114.617 197.173 114.476 197.773 114.476C198.372 114.476 198.963 114.617 199.497 114.887C199.706 114.959 199.886 115.094 200.014 115.273C200.142 115.452 200.211 115.667 200.211 115.887C200.211 116.107 200.142 116.321 200.014 116.501C199.886 116.68 199.706 116.814 199.497 116.886Z" fill="white"/>
<path d="M249.701 215.576C249.701 215.576 247.639 211.871 244.304 213.73L221.57 227.019C220.434 227.83 219.505 228.897 218.858 230.133C218.21 231.369 217.861 232.74 217.84 234.135C217.811 234.933 218.01 235.723 218.413 236.413C218.468 236.497 218.527 236.578 218.591 236.655C219.035 237.261 219.608 237.762 220.268 238.12C220.928 238.479 221.66 238.687 222.41 238.73C222.41 238.73 223.161 238.603 223.225 238.577C223.45 238.501 223.668 238.403 223.874 238.284L246.557 224.982C247.693 224.171 248.622 223.105 249.27 221.869C249.917 220.633 250.266 219.262 250.287 217.867C250.317 217.063 250.113 216.267 249.701 215.576Z" fill="#3D4953"/>
<path d="M222.193 239.061C221.439 238.979 220.71 238.741 220.052 238.362C219.395 237.983 218.823 237.471 218.375 236.859C218.302 236.774 218.234 236.684 218.171 236.591C217.736 235.848 217.519 234.996 217.547 234.135C217.572 232.684 217.937 231.26 218.611 229.976C219.285 228.692 220.25 227.583 221.43 226.739L244.151 213.526C247.741 211.528 249.969 215.435 249.994 215.486C250.415 216.216 250.622 217.05 250.592 217.892C250.568 219.343 250.205 220.767 249.53 222.052C248.856 223.336 247.89 224.444 246.71 225.288L223.963 238.577C223.743 238.711 223.508 238.818 223.263 238.895C223.263 238.895 222.41 239.061 222.333 239.061H222.193ZM218.68 236.235L218.833 236.451C219.239 237.013 219.762 237.48 220.367 237.818C220.971 238.157 221.642 238.359 222.333 238.412L223.084 238.272C223.283 238.205 223.475 238.12 223.657 238.017L246.404 224.728C247.49 223.945 248.377 222.919 248.996 221.732C249.615 220.545 249.948 219.23 249.969 217.892C250.005 217.142 249.819 216.398 249.434 215.754V215.665C249.167 215.219 247.346 212.431 244.508 214.01L221.761 227.286C220.676 228.073 219.789 229.101 219.17 230.29C218.551 231.478 218.218 232.795 218.196 234.135C218.164 234.87 218.346 235.6 218.718 236.235H218.68Z" fill="#3D4953"/>
<path d="M249.154 215.652C249.154 215.652 247.232 212.202 244.062 213.933L221.557 226.93C220.498 227.689 219.633 228.685 219.029 229.839C218.425 230.993 218.101 232.272 218.082 233.575C218.045 234.319 218.226 235.058 218.604 235.7L218.769 235.942C219.368 236.655 221.379 238.781 223.657 237.457L232.479 229.896L244.062 223.213C245.057 222.499 245.882 221.574 246.478 220.505C247.074 219.436 247.427 218.248 247.512 217.027L249.154 215.652Z" fill="#B4E8D8"/>
<path opacity="0.9" d="M249.154 215.652C249.154 215.652 247.232 212.202 244.062 213.933L221.557 226.93C220.498 227.689 219.633 228.685 219.029 229.839C218.425 230.993 218.101 232.272 218.082 233.575C218.045 234.319 218.226 235.058 218.604 235.7L218.769 235.942C219.368 236.655 221.379 238.781 223.657 237.457L232.479 229.896L244.062 223.213C245.057 222.499 245.882 221.574 246.478 220.505C247.074 219.436 247.427 218.248 247.512 217.027L249.154 215.652Z" fill="white"/>
<path d="M222.206 238.195C221.494 238.121 220.804 237.9 220.18 237.547C219.556 237.195 219.011 236.718 218.579 236.146L218.4 235.891C217.986 235.192 217.783 234.387 217.815 233.575C217.838 232.218 218.178 230.885 218.808 229.682C219.438 228.48 220.34 227.442 221.443 226.65L243.948 213.653C247.321 211.795 249.421 215.461 249.434 215.499C249.473 215.562 249.488 215.636 249.476 215.708C249.464 215.781 249.427 215.847 249.371 215.894L247.868 217.167C247.772 218.427 247.4 219.651 246.777 220.751C246.154 221.851 245.297 222.8 244.266 223.531L232.695 230.214L223.925 237.712C223.407 238.026 222.812 238.193 222.206 238.195ZM218.922 235.535C218.969 235.606 219.02 235.674 219.075 235.739C219.75 236.566 221.544 238.348 223.556 237.19L232.326 229.654L243.948 222.946C244.897 222.254 245.683 221.364 246.253 220.338C246.822 219.311 247.161 218.172 247.245 217.001C247.245 216.96 247.255 216.919 247.273 216.882C247.29 216.845 247.315 216.812 247.347 216.785L248.747 215.588C248.543 215.203 248.266 214.862 247.93 214.585C247.595 214.307 247.208 214.099 246.792 213.971C246.375 213.843 245.938 213.799 245.505 213.841C245.071 213.882 244.65 214.009 244.266 214.214L221.761 227.197C220.754 227.93 219.932 228.886 219.357 229.99C218.783 231.095 218.473 232.317 218.451 233.562C218.43 234.246 218.592 234.923 218.922 235.522V235.535Z" fill="#3D4953"/>
<path d="M220.233 234.835C220.251 233.531 220.574 232.248 221.178 231.092C221.781 229.936 222.648 228.937 223.708 228.177L246.214 215.181C248.136 214.073 249.702 215.257 249.702 217.816C249.679 219.121 249.352 220.402 248.746 221.558C248.141 222.714 247.274 223.712 246.214 224.473L223.708 237.457C221.786 238.577 220.233 237.393 220.233 234.835Z" fill="#17B686"/>
<path d="M220.233 234.835C220.251 233.531 220.574 232.248 221.178 231.092C221.781 229.936 222.648 228.937 223.708 228.177L246.214 215.181C248.136 214.073 249.702 215.257 249.702 217.816C249.679 219.121 249.352 220.402 248.746 221.558C248.141 222.714 247.274 223.712 246.214 224.473L223.708 237.457C221.786 238.577 220.233 237.393 220.233 234.835Z" fill="white"/>
<path d="M222.308 238.195C221.937 238.201 221.572 238.104 221.252 237.915C220.775 237.566 220.398 237.098 220.159 236.557C219.92 236.017 219.827 235.423 219.89 234.835C219.912 233.475 220.253 232.138 220.886 230.934C221.518 229.729 222.424 228.689 223.53 227.897L246.036 214.914C246.405 214.66 246.836 214.51 247.283 214.476C247.73 214.442 248.178 214.528 248.581 214.723C249.058 215.076 249.434 215.546 249.672 216.089C249.911 216.631 250.005 217.226 249.943 217.816C249.918 219.174 249.575 220.507 248.943 221.709C248.311 222.912 247.407 223.95 246.303 224.741L223.874 237.712C223.404 238.009 222.864 238.176 222.308 238.195ZM247.576 215.092C247.126 215.1 246.687 215.228 246.303 215.461L223.798 228.458C222.785 229.185 221.957 230.14 221.38 231.245C220.803 232.35 220.493 233.575 220.475 234.822C220.417 235.3 220.482 235.786 220.665 236.231C220.847 236.677 221.142 237.069 221.519 237.368C221.832 237.515 222.179 237.576 222.523 237.545C222.868 237.513 223.198 237.391 223.479 237.19L245.985 224.193C246.996 223.465 247.824 222.51 248.4 221.405C248.977 220.3 249.288 219.075 249.307 217.829C249.367 217.35 249.302 216.865 249.119 216.419C248.936 215.973 248.642 215.581 248.263 215.283C248.06 215.168 247.834 215.103 247.601 215.092H247.576Z" fill="#3D4953"/>
<path d="M284.478 195.591C284.478 195.591 282.416 191.899 279.081 193.745L256.346 207.034C255.211 207.845 254.282 208.912 253.634 210.148C252.986 211.384 252.638 212.755 252.617 214.15C252.588 214.948 252.786 215.739 253.189 216.428L253.368 216.683C253.813 217.287 254.386 217.785 255.046 218.141C255.706 218.498 256.437 218.704 257.186 218.745C257.186 218.745 257.937 218.618 258.001 218.592C258.226 218.521 258.444 218.427 258.65 218.312L281.385 205.023C282.52 204.212 283.449 203.145 284.097 201.909C284.745 200.673 285.093 199.303 285.114 197.907C285.134 197.089 284.912 196.284 284.478 195.591Z" fill="#3D4953"/>
<path d="M256.97 219.076C256.217 218.994 255.489 218.757 254.832 218.38C254.175 218.003 253.603 217.495 253.151 216.887L252.947 216.607C252.512 215.863 252.296 215.011 252.324 214.15C252.351 212.7 252.716 211.277 253.39 209.993C254.064 208.709 255.028 207.6 256.206 206.754L278.953 193.478C282.543 191.479 284.77 195.4 284.796 195.438C285.217 196.173 285.424 197.01 285.394 197.856C285.369 199.305 285.005 200.727 284.331 202.009C283.656 203.292 282.691 204.398 281.512 205.239L258.752 218.618C258.529 218.746 258.295 218.853 258.052 218.936L257.135 219.114L256.97 219.076ZM253.457 216.263L253.609 216.479C254.012 217.015 254.518 217.464 255.098 217.801C255.677 218.138 256.318 218.355 256.983 218.44H257.11L257.861 218.287C258.06 218.222 258.252 218.137 258.434 218.032L281.181 204.743C282.266 203.96 283.154 202.934 283.773 201.747C284.391 200.561 284.724 199.246 284.745 197.907C284.781 197.157 284.595 196.414 284.21 195.769V195.692C283.943 195.234 282.123 192.447 279.284 194.025L256.537 207.314C255.452 208.097 254.564 209.123 253.945 210.31C253.327 211.497 252.994 212.812 252.973 214.15C252.943 214.889 253.124 215.622 253.495 216.263H253.457Z" fill="#3D4953"/>
<path d="M283.93 195.705C283.93 195.705 282.008 192.256 278.838 193.987L256.333 206.983C255.275 207.742 254.409 208.738 253.805 209.892C253.202 211.046 252.877 212.326 252.858 213.628C252.826 214.376 253.007 215.117 253.38 215.766L253.545 215.996C254.144 216.708 256.155 218.834 258.433 217.51L267.268 209.962L278.838 203.266C279.834 202.554 280.66 201.629 281.256 200.56C281.853 199.49 282.205 198.302 282.288 197.08L283.93 195.705Z" fill="#B4E8D8"/>
<path opacity="0.9" d="M283.93 195.705C283.93 195.705 282.008 192.256 278.838 193.987L256.333 206.983C255.275 207.742 254.409 208.738 253.805 209.892C253.202 211.046 252.877 212.326 252.858 213.628C252.826 214.376 253.007 215.117 253.38 215.766L253.545 215.996C254.144 216.708 256.155 218.834 258.433 217.51L267.268 209.962L278.838 203.266C279.834 202.554 280.66 201.629 281.256 200.56C281.853 199.49 282.205 198.302 282.288 197.08L283.93 195.705Z" fill="white"/>
<path d="M256.983 218.211C256.27 218.136 255.58 217.915 254.956 217.563C254.332 217.21 253.787 216.733 253.355 216.161L253.177 215.907C252.763 215.207 252.559 214.402 252.591 213.59C252.614 212.231 252.955 210.897 253.587 209.694C254.219 208.491 255.125 207.454 256.232 206.665L278.724 193.681C282.097 191.81 284.198 195.476 284.211 195.514C284.249 195.577 284.264 195.651 284.252 195.723C284.24 195.796 284.203 195.862 284.147 195.909L282.645 197.182C282.551 198.443 282.18 199.668 281.557 200.768C280.934 201.868 280.075 202.817 279.042 203.546L267.472 210.229L258.701 217.752C258.18 218.058 257.586 218.216 256.983 218.211ZM253.699 215.55C253.745 215.621 253.796 215.689 253.851 215.754C254.526 216.581 256.321 218.363 258.332 217.205L267.102 209.682L278.724 202.961C279.676 202.273 280.465 201.383 281.035 200.356C281.605 199.329 281.941 198.188 282.021 197.016C282.022 196.974 282.032 196.932 282.052 196.894C282.072 196.857 282.101 196.824 282.136 196.8L283.523 195.603C283.11 194.829 282.406 194.249 281.566 193.991C280.727 193.734 279.819 193.819 279.042 194.229L256.55 207.225C255.537 207.952 254.708 208.907 254.131 210.012C253.554 211.118 253.245 212.343 253.228 213.59C253.206 214.274 253.369 214.951 253.699 215.55Z" fill="#3D4953"/>
<path d="M255.009 214.799C255.026 213.495 255.35 212.213 255.953 211.056C256.557 209.9 257.424 208.902 258.484 208.142L280.99 195.196C282.912 194.089 284.477 195.272 284.477 197.831C284.458 199.136 284.132 200.419 283.526 201.575C282.92 202.731 282.052 203.729 280.99 204.488L258.484 217.472C256.562 218.618 255.009 217.409 255.009 214.799Z" fill="#17B686"/>
<path d="M255.009 214.799C255.026 213.495 255.35 212.213 255.953 211.056C256.557 209.9 257.424 208.902 258.484 208.142L280.99 195.196C282.912 194.089 284.477 195.272 284.477 197.831C284.458 199.136 284.132 200.419 283.526 201.575C282.92 202.731 282.052 203.729 280.99 204.488L258.484 217.472C256.562 218.618 255.009 217.409 255.009 214.799Z" fill="white"/>
<path d="M257.11 218.21C256.74 218.214 256.376 218.122 256.053 217.943C255.577 217.59 255.201 217.119 254.962 216.577C254.723 216.035 254.63 215.439 254.691 214.85C254.716 213.49 255.058 212.154 255.69 210.95C256.322 209.746 257.226 208.705 258.332 207.912L280.862 194.929C281.234 194.678 281.664 194.529 282.111 194.498C282.558 194.466 283.006 194.554 283.408 194.75C283.885 195.1 284.262 195.568 284.501 196.109C284.74 196.649 284.833 197.243 284.77 197.831C284.744 199.191 284.401 200.525 283.769 201.729C283.137 202.934 282.233 203.974 281.13 204.768L258.624 217.752C258.167 218.032 257.645 218.19 257.11 218.21ZM282.377 195.107C281.928 195.115 281.489 195.243 281.104 195.476L258.65 208.434C257.638 209.163 256.811 210.118 256.234 211.223C255.657 212.328 255.347 213.553 255.328 214.799C255.269 215.277 255.334 215.762 255.517 216.208C255.7 216.654 255.994 217.045 256.371 217.345C256.684 217.492 257.031 217.553 257.376 217.522C257.72 217.49 258.05 217.368 258.332 217.167L280.862 204.208C281.874 203.48 282.701 202.525 283.278 201.42C283.855 200.315 284.166 199.09 284.185 197.844C284.243 197.365 284.178 196.88 283.995 196.434C283.813 195.989 283.518 195.597 283.141 195.298C282.908 195.167 282.644 195.101 282.377 195.107Z" fill="#3D4953"/>
<path d="M83.2796 255.138C82.0342 255.141 80.8112 254.807 79.7408 254.17L51.0619 236.961C50.2175 236.474 49.2613 236.215 48.2869 236.21L19.0097 236.337C18.3345 236.337 17.687 236.069 17.2095 235.591C16.7321 235.114 16.4639 234.466 16.4639 233.791C16.4639 233.116 16.7321 232.468 17.2095 231.991C17.687 231.513 18.3345 231.245 19.0097 231.245L48.2869 231.118C50.1892 231.122 52.0563 231.631 53.6968 232.594L82.3758 249.792C82.6598 249.957 82.9826 250.044 83.3114 250.044C83.6401 250.044 83.963 249.957 84.247 249.792L161.552 204.514C161.841 204.315 162.168 204.177 162.512 204.111C162.857 204.044 163.212 204.049 163.554 204.126C163.897 204.203 164.22 204.35 164.503 204.558C164.786 204.765 165.023 205.029 165.199 205.333C165.375 205.637 165.486 205.974 165.526 206.323C165.566 206.671 165.533 207.025 165.429 207.36C165.326 207.696 165.154 208.006 164.925 208.272C164.696 208.538 164.414 208.754 164.097 208.905L86.7801 254.26C85.7121 254.858 84.5037 255.162 83.2796 255.138Z" fill="#94D8C3"/>
<path d="M174.523 197.207C173.963 197.206 173.419 197.021 172.976 196.68C172.532 196.339 172.213 195.861 172.068 195.321C171.923 194.78 171.961 194.207 172.174 193.69C172.388 193.172 172.766 192.74 173.25 192.459L222.614 164.188C224.251 163.203 226.126 162.684 228.036 162.686H265.702C266.377 162.686 267.025 162.954 267.502 163.431C267.98 163.909 268.248 164.556 268.248 165.231C268.248 165.907 267.98 166.554 267.502 167.032C267.025 167.509 266.377 167.777 265.702 167.777H228.036C227.04 167.775 226.062 168.048 225.211 168.566L175.783 196.876C175.399 197.094 174.964 197.208 174.523 197.207Z" fill="#94D8C3"/>
<path opacity="0.3" d="M276.255 158.79C281.537 161.845 281.537 166.784 276.255 169.839C273.296 171.339 270.025 172.121 266.708 172.121C263.39 172.121 260.12 171.339 257.161 169.839C251.878 166.784 251.878 161.845 257.161 158.79C260.121 157.297 263.391 156.518 266.708 156.518C270.024 156.518 273.294 157.297 276.255 158.79Z" fill="#B4E8D8"/>
<path d="M275.633 164.061V163.984C275.596 163.673 275.514 163.369 275.391 163.081C274.83 161.518 273.94 160.094 272.781 158.905L272.578 158.676L272.259 158.333C271.966 158.074 271.646 157.848 271.305 157.658C269.846 156.953 268.242 156.603 266.623 156.636C265.004 156.669 263.415 157.085 261.987 157.849C261.656 158.057 261.345 158.296 261.058 158.562C260.943 158.676 260.867 158.791 260.752 158.918C260.638 159.045 260.612 159.071 260.561 159.147C259.456 160.384 258.627 161.842 258.13 163.424C258.018 163.723 257.95 164.036 257.926 164.353V164.672C257.926 166.034 258.766 167.141 260.587 168.147C262.554 169.094 264.717 169.563 266.901 169.517C269.084 169.471 271.225 168.909 273.15 167.879C274.933 166.81 275.76 165.55 275.696 164.188L275.633 164.061Z" fill="#3D4953"/>
<path d="M266.557 169.751C264.44 169.798 262.344 169.317 260.46 168.35C258.55 167.307 257.634 166.097 257.685 164.672V164.328C257.705 163.997 257.773 163.671 257.888 163.361C258.396 161.753 259.242 160.273 260.371 159.02L260.485 158.88L260.561 158.791L260.689 158.638C260.745 158.556 260.809 158.479 260.88 158.409C261.161 158.136 261.472 157.897 261.809 157.696C263.27 156.914 264.895 156.488 266.552 156.453C268.208 156.417 269.85 156.774 271.343 157.492C271.689 157.682 272.013 157.908 272.311 158.167L272.501 158.383L272.629 158.523L272.705 158.613C272.762 158.657 272.814 158.708 272.858 158.765C274.03 159.975 274.932 161.42 275.506 163.004C275.629 163.31 275.711 163.631 275.747 163.959V164.201C275.862 165.652 274.971 166.963 273.125 168.083C271.118 169.202 268.854 169.776 266.557 169.751ZM261.16 158.753C261.125 158.813 261.082 158.869 261.032 158.918L260.892 159.084L260.816 159.173L260.727 159.287C259.629 160.503 258.804 161.939 258.308 163.501C258.206 163.783 258.146 164.079 258.13 164.379V164.684C258.13 165.957 258.907 166.988 260.676 167.969C262.609 168.894 264.733 169.352 266.875 169.305C269.018 169.259 271.119 168.709 273.011 167.701C274.704 166.683 275.556 165.512 275.416 164.213V164.022C275.39 163.724 275.317 163.432 275.2 163.157C274.655 161.624 273.787 160.226 272.654 159.058L272.527 158.918C272.5 158.885 272.471 158.855 272.438 158.829L272.311 158.676L272.17 158.523C271.892 158.276 271.59 158.059 271.267 157.874C269.841 157.191 268.274 156.852 266.693 156.886C265.112 156.919 263.561 157.323 262.165 158.065C261.845 158.257 261.55 158.488 261.287 158.753H261.16Z" fill="#3D4953"/>
<path d="M275.073 163.59V163.462C275.076 163.437 275.076 163.411 275.073 163.386C275.043 163.084 274.97 162.789 274.856 162.508C274.231 160.762 273.192 159.194 271.827 157.938L266.417 157.798L261.007 158.167C259.693 159.476 258.722 161.09 258.181 162.864C258.069 163.144 258.005 163.441 257.99 163.743V164.061C257.99 165.334 258.792 166.441 260.536 167.409C262.432 168.32 264.516 168.772 266.619 168.728C268.722 168.683 270.786 168.144 272.642 167.154C274.36 166.136 275.175 164.939 275.073 163.59Z" fill="#128A66"/>
<path d="M266.315 168.974C264.281 169.031 262.263 168.595 260.434 167.701C258.563 166.67 257.71 165.537 257.748 164.137V163.806C257.773 163.488 257.842 163.176 257.952 162.877C258.503 161.073 259.491 159.433 260.829 158.103C260.872 158.065 260.925 158.039 260.981 158.027L266.379 157.658L271.814 157.798C271.863 157.779 271.918 157.779 271.967 157.798C273.36 159.08 274.417 160.684 275.047 162.469C275.174 162.761 275.255 163.07 275.289 163.386V163.59C275.391 165.003 274.538 166.263 272.743 167.345C270.782 168.446 268.564 169.008 266.315 168.974ZM261.096 158.409C259.835 159.682 258.9 161.241 258.372 162.953C258.278 163.22 258.218 163.498 258.194 163.781V164.086C258.194 165.359 258.932 166.301 260.651 167.243C262.513 168.136 264.56 168.578 266.625 168.533C268.691 168.489 270.717 167.96 272.54 166.988C274.169 166.008 274.945 164.875 274.856 163.641V163.462C274.828 163.178 274.759 162.9 274.653 162.635C274.047 160.941 273.043 159.417 271.725 158.192L266.404 158.052L261.096 158.409Z" fill="#3D4953"/>
<path d="M270.541 164.57V164.366C270.513 164.063 270.436 163.766 270.312 163.488C269.694 161.738 268.653 160.169 267.283 158.918L261.873 158.778L260.243 158.893C259.304 160.012 258.602 161.312 258.181 162.711C258.069 162.992 258.005 163.288 257.99 163.59V163.908C257.99 165.181 258.792 166.288 260.536 167.256C262.637 168.297 264.985 168.737 267.321 168.529C267.587 168.412 267.846 168.281 268.097 168.134C269.828 167.103 270.63 165.894 270.541 164.57Z" fill="#17B686"/>
<path d="M266.315 168.974C264.281 169.031 262.263 168.595 260.434 167.701C258.563 166.67 257.71 165.537 257.748 164.137V163.806C257.773 163.488 257.842 163.176 257.952 162.877C258.503 161.073 259.491 159.433 260.829 158.103C260.872 158.065 260.925 158.039 260.981 158.027L266.379 157.658L271.814 157.798C271.863 157.779 271.918 157.779 271.967 157.798C273.36 159.08 274.417 160.684 275.047 162.469C275.174 162.761 275.255 163.07 275.289 163.386V163.59C275.391 165.003 274.538 166.263 272.743 167.345C270.782 168.446 268.564 169.008 266.315 168.974ZM261.096 158.409C259.835 159.682 258.9 161.241 258.372 162.953C258.278 163.22 258.218 163.498 258.194 163.781V164.086C258.194 165.359 258.932 166.301 260.651 167.243C262.513 168.136 264.56 168.578 266.625 168.533C268.691 168.489 270.717 167.96 272.54 166.988C274.169 166.008 274.945 164.875 274.856 163.641V163.462C274.828 163.178 274.759 162.9 274.653 162.635C274.047 160.941 273.043 159.417 271.725 158.192L266.404 158.052L261.096 158.409Z" fill="#3D4953"/>
<path d="M270.885 157.314C273.431 158.689 273.431 161.006 270.987 162.495C269.609 163.231 268.078 163.631 266.516 163.664C264.955 163.697 263.408 163.362 262 162.686C259.454 161.311 259.454 158.982 261.898 157.492C263.277 156.759 264.809 156.361 266.37 156.33C267.932 156.299 269.478 156.636 270.885 157.314Z" fill="#26BB8E"/>
<path d="M269.026 156.69L268.848 156.614C266.495 156.075 264.027 156.405 261.898 157.543C259.441 159.033 259.492 161.362 262 162.737L262.191 162.813C264.544 163.35 267.012 163.02 269.141 161.884C271.585 160.395 271.534 158.078 269.026 156.69Z" fill="white"/>
<path d="M266.29 163.883C264.765 163.914 263.257 163.568 261.898 162.877C261.315 162.687 260.806 162.32 260.441 161.828C260.076 161.336 259.874 160.743 259.861 160.13C259.848 159.517 260.027 158.916 260.371 158.409C260.716 157.902 261.209 157.515 261.783 157.302C263.195 156.549 264.763 156.14 266.362 156.107C267.961 156.074 269.545 156.418 270.987 157.111C271.569 157.301 272.078 157.667 272.443 158.159C272.808 158.651 273.011 159.245 273.024 159.858C273.036 160.47 272.858 161.072 272.514 161.578C272.169 162.085 271.676 162.472 271.101 162.686C269.633 163.507 267.971 163.92 266.29 163.883ZM266.595 156.55C264.995 156.52 263.414 156.91 262.013 157.683C261.516 157.867 261.088 158.201 260.79 158.638C260.492 159.076 260.338 159.596 260.349 160.125C260.36 160.655 260.536 161.168 260.853 161.593C261.169 162.017 261.61 162.333 262.114 162.495C263.487 163.152 264.995 163.478 266.516 163.445C268.037 163.411 269.53 163.021 270.872 162.304C271.364 162.118 271.787 161.784 272.082 161.348C272.376 160.912 272.529 160.395 272.517 159.869C272.506 159.342 272.332 158.833 272.019 158.409C271.706 157.986 271.27 157.67 270.77 157.505C269.477 156.852 268.044 156.525 266.595 156.55Z" fill="#3D4953"/>
<path d="M269.268 158.6C267.394 157.883 265.315 157.915 263.464 158.689C261.885 159.465 261.923 160.675 263.54 161.4C265.415 162.118 267.496 162.082 269.344 161.298C270.961 160.522 270.936 159.313 269.268 158.6Z" fill="#3D4953"/>
<path d="M266.341 162.126C265.365 162.148 264.394 161.97 263.489 161.604C262.611 161.222 262.127 160.675 262.115 160.064C262.102 159.453 262.56 158.905 263.387 158.498C265.293 157.688 267.438 157.652 269.37 158.396C270.248 158.778 270.732 159.326 270.745 159.924C270.758 160.522 270.299 161.082 269.472 161.502C268.485 161.934 267.417 162.146 266.341 162.126ZM266.544 158.307C265.533 158.284 264.529 158.484 263.604 158.893C262.929 159.224 262.56 159.644 262.56 160.051C262.56 160.458 262.98 160.891 263.667 161.197C265.484 161.87 267.491 161.815 269.268 161.044C269.943 160.726 270.325 160.293 270.312 159.886C270.299 159.478 269.905 159.058 269.205 158.753C268.357 158.427 267.452 158.275 266.544 158.307Z" fill="#3D4953"/>
<path d="M266.34 162.126C265.364 162.148 264.394 161.97 263.489 161.604C263.021 161.42 262.618 161.101 262.331 160.687C262.306 160.654 262.292 160.614 262.292 160.573C262.292 160.532 262.306 160.491 262.331 160.458C262.595 160.057 262.971 159.743 263.413 159.555C265.318 158.747 267.461 158.706 269.395 159.44C269.864 159.624 270.267 159.943 270.554 160.356C270.578 160.392 270.591 160.434 270.591 160.477C270.591 160.52 270.578 160.563 270.554 160.598C270.292 160.996 269.921 161.31 269.485 161.502C268.494 161.935 267.421 162.148 266.34 162.126ZM262.789 160.573C263.031 160.845 263.331 161.058 263.667 161.197C265.484 161.87 267.491 161.815 269.268 161.044C269.583 160.905 269.862 160.696 270.083 160.433C269.845 160.154 269.544 159.936 269.204 159.796C267.388 159.116 265.381 159.153 263.591 159.898C263.274 160.056 262.999 160.287 262.789 160.573Z" fill="#3D4953"/>
<path d="M269.396 159.644C267.52 158.931 265.442 158.968 263.592 159.746C263.186 159.917 262.841 160.205 262.599 160.573C262.86 160.948 263.228 161.236 263.655 161.4C265.53 162.12 267.611 162.083 269.46 161.299C269.862 161.127 270.206 160.845 270.453 160.484C270.188 160.108 269.822 159.817 269.396 159.644Z" fill="white"/>
<path d="M266.34 162.126C265.364 162.148 264.394 161.97 263.489 161.604C263.021 161.42 262.618 161.101 262.331 160.687C262.306 160.654 262.292 160.614 262.292 160.573C262.292 160.532 262.306 160.491 262.331 160.458C262.595 160.057 262.971 159.743 263.413 159.555C265.318 158.747 267.461 158.706 269.395 159.44C269.864 159.624 270.267 159.943 270.554 160.356C270.578 160.392 270.591 160.434 270.591 160.477C270.591 160.52 270.578 160.563 270.554 160.598C270.292 160.996 269.921 161.31 269.485 161.502C268.494 161.935 267.421 162.148 266.34 162.126ZM262.789 160.573C263.031 160.845 263.331 161.058 263.667 161.197C265.484 161.87 267.491 161.815 269.268 161.044C269.583 160.905 269.862 160.696 270.083 160.433C269.845 160.154 269.544 159.936 269.204 159.796C267.388 159.116 265.381 159.153 263.591 159.898C263.274 160.056 262.999 160.287 262.789 160.573Z" fill="#3D4953"/>
<ellipse cx="198" cy="114.5" rx="5" ry="3.5" fill="#3D4953"/>
</g>
<g clip-path="url(#clip1_494_2281)">
<path d="M269.139 156.741V116.008C269.139 114.25 267.714 112.825 265.956 112.825C264.199 112.825 262.774 114.25 262.774 116.007V156.741C262.774 158.499 264.199 159.923 265.956 159.923C267.714 159.923 269.139 158.499 269.139 156.741Z" fill="#128A66"/>
<path d="M293.324 92.1987V115.247C293.324 115.3 293.324 115.354 293.324 115.408C293.283 115.934 293.043 116.426 292.654 116.784C292.265 117.143 291.754 117.343 291.223 117.344H265.034C264.503 117.343 263.992 117.143 263.603 116.784C263.213 116.426 262.974 115.934 262.932 115.408C262.932 115.354 262.932 115.3 262.932 115.247V92.7658H251.128V77.0728H278.983V77.0962C281.628 77.2403 284.187 78.0759 286.403 79.5188C288.422 80.824 290.102 82.5868 291.304 84.6626C292.459 86.6454 293.141 88.8655 293.297 91.1518C293.311 91.5008 293.324 91.8363 293.324 92.1987Z" fill="#BC2020"/>
<path d="M293.29 91.1654H251.131V78.1835H283.83C286.469 79.2511 288.754 81.0335 290.427 83.3282C292.099 85.6229 293.091 88.338 293.29 91.1654Z" fill="#D13333"/>
<path d="M293.317 115.408C293.276 115.934 293.037 116.426 292.647 116.784C292.258 117.143 291.747 117.343 291.216 117.344H265.034C264.503 117.343 263.992 117.143 263.603 116.784C263.213 116.426 262.974 115.934 262.933 115.408H293.317Z" fill="#9B1515"/>
<path d="M238.035 117.337C237.476 117.336 236.941 117.115 236.546 116.722C236.151 116.329 235.928 115.796 235.927 115.24V92.1987C235.927 88.1888 237.528 84.3432 240.378 81.5078C243.229 78.6724 247.094 77.0795 251.125 77.0795C255.155 77.0795 259.021 78.6724 261.871 81.5078C264.721 84.3432 266.322 88.1888 266.322 92.1987V115.247C266.322 115.803 266.1 116.336 265.705 116.73C265.31 117.123 264.773 117.344 264.214 117.344L238.035 117.337Z" fill="#F45151"/>
<path d="M265.314 92.1987V115.267C265.308 115.552 265.189 115.824 264.985 116.024C264.78 116.224 264.505 116.336 264.218 116.337H238.035C237.745 116.336 237.466 116.221 237.261 116.017C237.056 115.812 236.94 115.536 236.939 115.247V92.1987C236.939 92.0746 236.939 91.9504 236.939 91.8296C237.018 88.7905 238.081 85.858 239.971 83.4686C241.86 81.0792 244.475 79.3607 247.425 78.5688C250.375 77.7769 253.504 77.9541 256.345 79.0738C259.186 80.1936 261.588 82.1961 263.192 84.7834C263.627 85.4757 263.999 86.2056 264.302 86.9644C264.925 88.5139 265.268 90.1611 265.314 91.8296C265.314 91.9504 265.314 92.0746 265.314 92.1987Z" fill="#404041"/>
<path d="M265.314 114.478V115.247C265.313 115.536 265.197 115.813 264.992 116.017C264.786 116.221 264.508 116.336 264.218 116.337H238.035C237.745 116.336 237.466 116.221 237.261 116.017C237.056 115.813 236.94 115.536 236.939 115.247V114.478H265.314Z" fill="#333333"/>
<path d="M264.693 117.673L264.255 116.783L262.963 117.337H237.391C236.231 117.337 234.713 117.803 234.018 118.377L220.021 129.832C218.298 131.242 217.475 132.56 217.468 133.688L217.175 133.651L217.654 134.597L217.684 134.657L217.755 134.798C218.635 136.359 221.499 137.345 226.032 137.345C234.413 137.345 245.347 133.99 250.413 129.832L264.41 118.384C264.747 118.105 264.835 117.847 264.693 117.673Z" fill="#9B1515"/>
<path d="M263.061 116.33C264.224 116.33 264.599 116.797 263.897 117.371L249.907 128.833C244.848 132.973 233.907 136.345 225.526 136.345C217.144 136.345 214.446 132.99 219.512 128.833L233.509 117.377C234.214 116.804 235.731 116.337 236.882 116.337L263.061 116.33Z" fill="#D13333"/>
<path d="M238.882 116.082C238.797 116.082 238.73 116.196 238.73 116.337C238.73 116.478 238.797 116.592 238.882 116.592H246.599V116.082H238.882Z" fill="#6D6E70"/>
<path d="M246.754 116.33C246.754 116.471 246.686 116.585 246.599 116.585C246.511 116.585 246.447 116.471 246.447 116.33C246.447 116.19 246.514 116.075 246.599 116.075C246.683 116.075 246.754 116.196 246.754 116.33Z" fill="#A5A7AA"/>
<path d="M252.72 116.082C252.635 116.082 252.564 116.196 252.564 116.337C252.564 116.478 252.635 116.592 252.72 116.592H260.436V116.082H252.72Z" fill="#6D6E70"/>
<path d="M260.588 116.33C260.588 116.471 260.521 116.585 260.436 116.585C260.352 116.585 260.281 116.471 260.281 116.33C260.281 116.19 260.352 116.075 260.436 116.075C260.521 116.075 260.588 116.196 260.588 116.33Z" fill="#A5A7AA"/>
<path d="M266.593 158.65C266.593 159.353 266.023 159.923 265.32 159.923V159.923C264.617 159.923 264.047 159.353 264.047 158.65V136.296C264.047 134.882 266.007 134.522 266.509 135.843V135.843C266.565 135.987 266.593 136.141 266.593 136.296V158.65Z" fill="#17B686"/>
<path d="M265.31 91.8364H236.942C237.003 89.3421 237.733 86.9094 239.057 84.7902H263.196C263.631 85.4825 264.002 86.2124 264.305 86.9711C264.927 88.5211 265.267 90.1683 265.31 91.8364Z" fill="#333333"/>
<path d="M264.305 86.9644H237.947C239.001 84.3447 240.82 82.0992 243.169 80.5176C245.518 78.9359 248.29 78.0906 251.126 78.0906C253.963 78.0906 256.734 78.9359 259.083 80.5176C261.432 82.0992 263.251 84.3447 264.305 86.9644Z" fill="#282525"/>
<path d="M285.722 79.8611H282.012C284.031 81.1663 285.71 82.9291 286.912 85.0049H290.622C289.42 82.9291 287.741 81.1663 285.722 79.8611Z" fill="#F45151"/>
<path d="M281.334 79.8611H260.7C262.504 81.2352 263.978 82.9924 265.013 85.0049H286.238C285.035 82.9287 283.354 81.1659 281.334 79.8611Z" fill="#F45151"/>
<path d="M277.088 67.0067H274.221C274.146 67.0063 274.072 67.0205 274.003 67.0487C273.934 67.0768 273.871 67.1182 273.818 67.1706C273.765 67.223 273.723 67.2853 273.694 67.3539C273.666 67.4225 273.651 67.4961 273.651 67.5704V93.2289C272.761 93.8328 272.133 95.279 272.133 96.9667C272.133 99.2014 273.226 100.993 274.579 100.993C275.931 100.993 277.024 99.1846 277.024 96.9667C277.024 95.289 276.396 93.8328 275.506 93.2289V70.9828H277.088C277.163 70.9828 277.236 70.9681 277.305 70.9396C277.374 70.9111 277.437 70.8692 277.49 70.8165C277.542 70.7638 277.584 70.7013 277.612 70.6325C277.641 70.5637 277.655 70.4901 277.654 70.4158V67.5637C277.653 67.4154 277.592 67.2737 277.486 67.1694C277.38 67.0652 277.237 67.0067 277.088 67.0067Z" fill="#17B686"/>
<path d="M277.425 67.0067H274.558C274.408 67.0067 274.263 67.066 274.157 67.1716C274.05 67.2772 273.989 67.4206 273.988 67.5704V93.2288C273.098 93.8328 272.471 95.279 272.471 96.9667C272.471 99.2014 273.567 100.993 274.916 100.993C276.265 100.993 277.361 99.1846 277.361 96.9667C277.361 95.289 276.734 93.8328 275.843 93.2288V70.9828H277.425C277.5 70.9828 277.574 70.9681 277.643 70.9396C277.712 70.911 277.774 70.8692 277.827 70.8165C277.88 70.7638 277.921 70.7013 277.95 70.6325C277.978 70.5637 277.992 70.4901 277.992 70.4158V67.5637C277.99 67.4154 277.93 67.2737 277.824 67.1694C277.717 67.0652 277.574 67.0067 277.425 67.0067Z" fill="#128A66"/>
<path d="M274.916 98.4967C275.428 98.4967 275.843 97.8102 275.843 96.9633C275.843 96.1165 275.428 95.4299 274.916 95.4299C274.404 95.4299 273.988 96.1165 273.988 96.9633C273.988 97.8102 274.404 98.4967 274.916 98.4967Z" fill="#17B686"/>
<path d="M265.314 107.187V115.267C265.09 115.361 264.849 115.409 264.605 115.408H238.777C238.425 115.398 238.079 115.311 237.764 115.153C237.45 114.995 237.174 114.771 236.956 114.495C236.674 114.155 236.487 113.746 236.416 113.311L233.718 96.4298C233.532 95.2789 234.288 94.3428 235.404 94.3428H261.249C261.823 94.3702 262.371 94.5922 262.8 94.9719C263.23 95.3515 263.516 95.866 263.61 96.4298L263.779 97.4867L263.917 98.3558L265.314 107.187Z" fill="#DBC052"/>
<path d="M253.887 104.201L255.037 103.057C255.668 102.446 256.255 101.832 256.814 101.255C257.374 100.678 257.907 100.124 258.386 99.6074C259.354 98.6008 260.133 97.7049 260.673 97.0841C261.212 96.4634 261.476 96.1413 261.513 96.0977C261.465 96.1279 261.084 96.3996 260.474 96.866C259.863 97.3324 258.889 98.0874 257.806 98.9833C257.263 99.4295 256.673 99.9127 256.062 100.439C255.452 100.966 254.798 101.51 254.147 102.097C253.718 102.48 253.27 102.865 252.824 103.268C252.64 103.434 252.455 103.601 252.268 103.771L252.13 103.899L251.873 104.137L251.745 104.255L251.634 104.345C251.486 104.464 251.325 104.566 251.155 104.65C250.793 104.815 250.399 104.899 250.002 104.899C249.578 104.896 249.159 104.812 248.767 104.65C248.673 104.607 248.561 104.563 248.477 104.516C248.393 104.469 248.315 104.436 248.19 104.348L248.045 104.255L247.88 104.137L247.543 103.902L247.361 103.775C247.121 103.6 246.878 103.439 246.639 103.268L244.953 102.097C244.113 101.513 243.286 100.966 242.507 100.439C241.728 99.9127 240.986 99.4329 240.295 98.9833C238.925 98.0874 237.769 97.3693 236.952 96.866C236.548 96.6177 236.221 96.4298 236.001 96.2956L235.664 96.0977L235.961 96.356C236.16 96.5238 236.443 96.7754 236.814 97.0841C237.556 97.7049 238.615 98.584 239.914 99.6074C240.561 100.124 241.263 100.681 242.008 101.255C242.754 101.829 243.539 102.446 244.369 103.057C244.868 103.429 245.381 103.812 245.883 104.197L238.44 113.311L246.534 104.664L246.919 104.946L247.256 105.184L247.418 105.308L247.61 105.436C247.742 105.526 247.878 105.609 248.018 105.684C248.167 105.768 248.305 105.825 248.45 105.895C249.015 106.135 249.62 106.265 250.234 106.278C250.81 106.275 251.378 106.145 251.897 105.895C252.138 105.769 252.364 105.616 252.572 105.439L252.723 105.308L252.851 105.184L253.101 104.949L253.398 104.664L264.272 113.311L253.887 104.201Z" fill="#CC9900"/>
<path d="M238.73 95.9299H237.479C237.344 95.9299 237.216 95.8769 237.121 95.7825C237.026 95.6881 236.973 95.5601 236.973 95.4266C236.973 95.2932 237.026 95.1651 237.121 95.0708C237.216 94.9764 237.344 94.9233 237.479 94.9233H238.73C238.864 94.9233 238.993 94.9764 239.088 95.0708C239.182 95.1651 239.236 95.2932 239.236 95.4266C239.236 95.5601 239.182 95.6881 239.088 95.7825C238.993 95.8769 238.864 95.9299 238.73 95.9299Z" fill="white"/>
<path d="M235.59 95.9299H235.455C235.32 95.9299 235.192 95.8769 235.097 95.7825C235.002 95.6881 234.949 95.5601 234.949 95.4266C234.949 95.2932 235.002 95.1651 235.097 95.0708C235.192 94.9764 235.32 94.9233 235.455 94.9233H235.59C235.724 94.9233 235.852 94.9764 235.947 95.0708C236.042 95.1651 236.095 95.2932 236.095 95.4266C236.095 95.5601 236.042 95.6881 235.947 95.7825C235.852 95.8769 235.724 95.9299 235.59 95.9299Z" fill="white"/>
<path d="M265.314 107.187V115.267C265.09 115.361 264.849 115.409 264.605 115.408H258.831L241.998 113.19C241.446 113.108 240.943 112.83 240.581 112.408C240.531 112.351 240.48 112.291 240.433 112.227C240.117 111.811 239.937 111.309 239.917 110.787L239.654 100.896L239.63 100.027L239.519 95.7051L239.482 94.3629H261.233C261.807 94.3903 262.354 94.6123 262.783 94.992C263.213 95.3717 263.499 95.8862 263.594 96.4499L263.762 97.5069L263.9 98.3759L265.314 107.187Z" fill="#CC9900"/>
<path d="M265.313 93.4905V114.73L242.102 111.67C241.556 111.588 241.058 111.313 240.699 110.895C240.647 110.839 240.598 110.78 240.554 110.717C240.239 110.306 240.06 109.808 240.042 109.291L239.789 99.4966L239.765 98.6343L239.654 94.3529L239.596 92.2054C239.566 91.0378 240.44 90.209 241.546 90.3566L265.313 93.4905Z" fill="#F2E29E"/>
<path d="M259.873 101.567C259.448 101.886 259.02 102.215 258.582 102.547L265.327 110.264V110.516L258.035 102.939C257.927 103.023 257.816 103.104 257.698 103.184L257.418 103.386L257.276 103.49L257.108 103.6C256.875 103.752 256.625 103.873 256.362 103.963C255.82 104.143 255.243 104.198 254.676 104.124C254.478 104.096 254.283 104.053 254.092 103.996C253.69 103.886 253.303 103.723 252.942 103.513L252.71 103.362C252.656 103.329 252.602 103.288 252.544 103.245C252.413 103.154 252.289 103.055 252.173 102.946L251.998 102.795L251.85 102.651L251.556 102.372L251.219 102.037L248.308 104.422L247.296 105.241L242.035 109.553L246.922 104.966L247.836 104.114L250.639 101.483C250.18 101.037 249.732 100.591 249.29 100.141C248.551 99.4263 247.856 98.7149 247.192 98.0472C246.527 97.3795 245.904 96.7353 245.334 96.1414C244.686 95.4703 244.109 94.8663 243.61 94.3362C243.222 93.9168 242.878 93.5477 242.598 93.2323C242.318 92.9169 242.021 92.5914 241.849 92.4001L241.586 92.1049L241.89 92.3464C242.092 92.5041 242.389 92.7357 242.757 93.0343C243.188 93.3698 243.721 93.8228 244.335 94.3362C244.785 94.7097 245.271 95.1213 245.792 95.5709C246.416 96.1044 247.091 96.6816 247.792 97.3057C248.494 97.9298 249.243 98.5773 249.998 99.2652C250.494 99.7215 251.01 100.178 251.522 100.648C251.738 100.842 251.954 101.04 252.17 101.245C252.224 101.295 252.281 101.342 252.335 101.396L252.632 101.671L252.78 101.809L252.912 101.923C252.995 101.996 253.083 102.063 253.175 102.124C253.249 102.184 253.354 102.238 253.442 102.295C253.529 102.352 253.634 102.399 253.732 102.443C254.017 102.575 254.32 102.663 254.632 102.704C254.88 102.736 255.13 102.736 255.377 102.704C255.523 102.687 255.666 102.656 255.806 102.61C255.986 102.55 256.159 102.47 256.322 102.372L256.443 102.295L256.588 102.194L256.872 101.993C256.926 101.96 256.973 101.919 257.027 101.886L257.644 101.456C258.14 101.121 258.632 100.785 259.111 100.47C259.833 99.9732 260.551 99.5168 261.226 99.0773C261.9 98.6377 262.551 98.2317 263.145 97.8627L263.755 97.4835C264.329 97.148 264.851 96.8124 265.307 96.5574V97.1681C264.893 97.5238 264.422 97.9186 263.894 98.3525L263.641 98.5572C263.098 99.0068 262.504 99.49 261.867 99.9832C261.229 100.476 260.578 101.027 259.873 101.567Z" fill="#DBC052"/>
<path d="M264.045 94.7656H263.975L243.661 91.9605C243.594 91.9515 243.53 91.9295 243.472 91.8959C243.414 91.8622 243.364 91.8176 243.323 91.7645C243.283 91.7113 243.253 91.6508 243.236 91.5863C243.219 91.5217 243.215 91.4545 243.224 91.3884C243.233 91.3223 243.255 91.2587 243.289 91.201C243.323 91.1434 243.368 91.093 243.421 91.0527C243.474 91.0123 243.535 90.9828 243.6 90.9659C243.665 90.9489 243.733 90.9449 243.799 90.9539L264.113 93.759C264.247 93.7679 264.372 93.8294 264.461 93.9301C264.549 94.0308 264.594 94.1624 264.585 94.2958C264.576 94.4293 264.514 94.5538 264.413 94.6419C264.312 94.73 264.18 94.7745 264.045 94.7656Z" fill="white"/>
<path d="M242.177 91.7424H242.106L241.519 91.6619C241.453 91.6527 241.389 91.6305 241.331 91.5966C241.273 91.5628 241.223 91.5179 241.182 91.4647C241.142 91.4114 241.112 91.3507 241.095 91.2861C241.079 91.2215 241.075 91.1542 241.084 91.0881C241.093 91.022 241.116 90.9584 241.15 90.9009C241.184 90.8434 241.229 90.7931 241.282 90.7529C241.336 90.7127 241.397 90.6834 241.462 90.6666C241.527 90.6499 241.594 90.646 241.661 90.6553L242.244 90.7358C242.378 90.7447 242.504 90.8063 242.592 90.907C242.681 91.0077 242.725 91.1392 242.716 91.2727C242.707 91.4062 242.646 91.5307 242.544 91.6187C242.443 91.7068 242.311 91.7513 242.177 91.7424Z" fill="white"/>
</g>
</g>
</g>
<defs>
<radialGradient id="paint0_radial_494_2281" cx="0" cy="0" r="1" gradientUnits="userSpaceOnUse" gradientTransform="translate(230 145.333) rotate(-158.437) scale(262.9 273.245)">
<stop stop-color="#0D8026"/>
<stop offset="1" stop-color="#30B173"/>
</radialGradient>
<clipPath id="clip0_494_2281">
<rect width="362.528" height="229.546" fill="white" transform="translate(-44 97.5502)"/>
</clipPath>
<clipPath id="clip1_494_2281">
<rect width="76.3753" height="92.9233" fill="white" transform="translate(216.949 67)"/>
</clipPath>
</defs>
</svg>
