<svg width="16" height="18" viewBox="0 0 16 18" fill="none" xmlns="http://www.w3.org/2000/svg">
<path d="M11.75 10.5C11.75 10.6989 11.671 10.8897 11.5303 11.0303C11.3897 11.171 11.1989 11.25 11 11.25H5C4.80109 11.25 4.61032 11.171 4.46967 11.0303C4.32902 10.8897 4.25 10.6989 4.25 10.5C4.25 10.3011 4.32902 10.1103 4.46967 9.96967C4.61032 9.82902 4.80109 9.75 5 9.75H11C11.1989 9.75 11.3897 9.82902 11.5303 9.96967C11.671 10.1103 11.75 10.3011 11.75 10.5ZM8.75 12.75H5C4.80109 12.75 4.61032 12.829 4.46967 12.9697C4.32902 13.1103 4.25 13.3011 4.25 13.5C4.25 13.6989 4.32902 13.8897 4.46967 14.0303C4.61032 14.171 4.80109 14.25 5 14.25H8.75C8.94891 14.25 9.13968 14.171 9.28033 14.0303C9.42098 13.8897 9.5 13.6989 9.5 13.5C9.5 13.3011 9.42098 13.1103 9.28033 12.9697C9.13968 12.829 8.94891 12.75 8.75 12.75ZM15.5 7.86375V14.25C15.4988 15.2442 15.1033 16.1973 14.4003 16.9003C13.6973 17.6033 12.7442 17.9988 11.75 18H4.25C3.2558 17.9988 2.30267 17.6033 1.59966 16.9003C0.896661 16.1973 0.501191 15.2442 0.5 14.25V3.75C0.501191 2.75581 0.896661 1.80267 1.59966 1.09967C2.30267 0.396663 3.2558 0.00119292 4.25 2.02772e-06H7.63625C8.32596 -0.00177317 9.00919 0.133193 9.64642 0.397096C10.2836 0.661 10.8622 1.04861 11.3488 1.5375L13.9618 4.152C14.4509 4.63818 14.8388 5.21659 15.1028 5.85373C15.3669 6.49087 15.5019 7.17407 15.5 7.86375ZM10.2882 2.598C10.0522 2.36937 9.7872 2.17269 9.5 2.013V5.25C9.5 5.44891 9.57902 5.63968 9.71967 5.78033C9.86032 5.92098 10.0511 6 10.25 6H13.487C13.3272 5.71289 13.1303 5.44811 12.9012 5.2125L10.2882 2.598ZM14 7.86375C14 7.74 13.976 7.6215 13.9647 7.5H10.25C9.65326 7.5 9.08097 7.26295 8.65901 6.84099C8.23705 6.41904 8 5.84674 8 5.25V1.53525C7.8785 1.524 7.75925 1.5 7.63625 1.5H4.25C3.65326 1.5 3.08097 1.73706 2.65901 2.15901C2.23705 2.58097 2 3.15326 2 3.75V14.25C2 14.8467 2.23705 15.419 2.65901 15.841C3.08097 16.2629 3.65326 16.5 4.25 16.5H11.75C12.3467 16.5 12.919 16.2629 13.341 15.841C13.7629 15.419 14 14.8467 14 14.25V7.86375Z" fill="#3D4953"/>
</svg>
