<svg width="14" height="16" viewBox="0 0 14 16" fill="none" xmlns="http://www.w3.org/2000/svg">
<path d="M9.055 5.74999L8.7955 12.5M5.2045 12.5L4.945 5.74999M12.421 3.34249C12.6775 3.38149 12.9325 3.42274 13.1875 3.46699M12.421 3.34249L11.62 13.7547C11.5873 14.1787 11.3958 14.5746 11.0838 14.8634C10.7717 15.1522 10.3622 15.3126 9.937 15.3125H4.063C3.63782 15.3126 3.22827 15.1522 2.91623 14.8634C2.6042 14.5746 2.41269 14.1787 2.38 13.7547L1.579 3.34249M12.421 3.34249C11.5554 3.21163 10.6853 3.11232 9.8125 3.04474M1.579 3.34249C1.3225 3.38074 1.0675 3.42199 0.8125 3.46624M1.579 3.34249C2.4446 3.21163 3.31468 3.11232 4.1875 3.04474M9.8125 3.04474V2.35774C9.8125 1.47274 9.13 0.734744 8.245 0.706994C7.41521 0.680473 6.58479 0.680473 5.755 0.706994C4.87 0.734744 4.1875 1.47349 4.1875 2.35774V3.04474M9.8125 3.04474C7.94029 2.90005 6.05971 2.90005 4.1875 3.04474" stroke="#A9AFB5" stroke-width="1.25" stroke-linecap="round" stroke-linejoin="round"/>
</svg>
