<svg width="16" height="18" viewBox="0 0 16 18" fill="none" xmlns="http://www.w3.org/2000/svg">
<path d="M11.7503 10.5C11.7503 10.6989 11.6713 10.8897 11.5306 11.0303C11.39 11.171 11.1992 11.25 11.0003 11.25H5.00031C4.80139 11.25 4.61063 11.171 4.46998 11.0303C4.32932 10.8897 4.25031 10.6989 4.25031 10.5C4.25031 10.3011 4.32932 10.1103 4.46998 9.96969C4.61063 9.82903 4.80139 9.75002 5.00031 9.75002H11.0003C11.1992 9.75002 11.39 9.82903 11.5306 9.96969C11.6713 10.1103 11.7503 10.3011 11.7503 10.5ZM8.75031 12.75H5.00031C4.80139 12.75 4.61063 12.829 4.46998 12.9697C4.32932 13.1103 4.25031 13.3011 4.25031 13.5C4.25031 13.6989 4.32932 13.8897 4.46998 14.0303C4.61063 14.171 4.80139 14.25 5.00031 14.25H8.75031C8.94922 14.25 9.13998 14.171 9.28063 14.0303C9.42129 13.8897 9.50031 13.6989 9.50031 13.5C9.50031 13.3011 9.42129 13.1103 9.28063 12.9697C9.13998 12.829 8.94922 12.75 8.75031 12.75ZM15.5003 7.86377V14.25C15.4991 15.2442 15.1036 16.1973 14.4006 16.9004C13.6976 17.6034 12.7445 17.9988 11.7503 18H4.25031C3.25611 17.9988 2.30297 17.6034 1.59997 16.9004C0.896967 16.1973 0.501496 15.2442 0.500305 14.25V3.75002C0.501496 2.75582 0.896967 1.80269 1.59997 1.09968C2.30297 0.396679 3.25611 0.00120818 4.25031 1.72865e-05H7.63656C8.32627 -0.00175791 9.00949 0.133208 9.64672 0.397112C10.284 0.661015 10.8625 1.04862 11.3491 1.53752L13.9621 4.15202C14.4512 4.6382 14.8391 5.21661 15.1031 5.85375C15.3672 6.49089 15.5022 7.17408 15.5003 7.86377ZM10.2886 2.59802C10.0525 2.36939 9.78751 2.17271 9.50031 2.01302V5.25002C9.50031 5.44893 9.57932 5.63969 9.71998 5.78035C9.86063 5.921 10.0514 6.00002 10.2503 6.00002H13.4873C13.3275 5.71291 13.1306 5.44813 12.9016 5.21252L10.2886 2.59802ZM14.0003 7.86377C14.0003 7.74002 13.9763 7.62152 13.9651 7.50002H10.2503C9.65357 7.50002 9.08127 7.26296 8.65932 6.84101C8.23736 6.41905 8.00031 5.84675 8.00031 5.25002V1.53527C7.87881 1.52402 7.75956 1.50002 7.63656 1.50002H4.25031C3.65357 1.50002 3.08127 1.73707 2.65932 2.15903C2.23736 2.58098 2.00031 3.15328 2.00031 3.75002V14.25C2.00031 14.8468 2.23736 15.4191 2.65932 15.841C3.08127 16.263 3.65357 16.5 4.25031 16.5H11.7503C12.347 16.5 12.9193 16.263 13.3413 15.841C13.7633 15.4191 14.0003 14.8468 14.0003 14.25V7.86377Z" fill="#17B686"/>
</svg>
