<svg width="18" height="18" viewBox="0 0 18 18" fill="none" xmlns="http://www.w3.org/2000/svg">
<path d="M4.5 15.0654H6.45772C6.71297 15.0654 6.96666 15.0958 7.21411 15.1565L9.28267 15.6592C9.73151 15.7685 10.1991 15.7792 10.6526 15.6911L12.9397 15.2461C13.5439 15.1284 14.0997 14.8391 14.5353 14.4154L16.1534 12.8413C16.6155 12.3926 16.6155 11.6644 16.1534 11.2148C15.7374 10.8101 15.0785 10.7646 14.6078 11.1078L12.7219 12.4837C12.4519 12.6811 12.1232 12.7874 11.7852 12.7874H9.96412L11.1233 12.7874C11.7767 12.7874 12.3059 12.2725 12.3059 11.637V11.4069C12.3059 10.8792 11.9367 10.419 11.4106 10.2914L9.62145 9.85635C9.33029 9.78573 9.0321 9.75004 8.73235 9.75004C8.00875 9.75004 6.69892 10.3492 6.69892 10.3492L4.5 11.2687M1.5 10.95L1.5 15.3C1.5 15.7201 1.5 15.9301 1.58175 16.0905C1.65365 16.2317 1.76839 16.3464 1.90951 16.4183C2.06994 16.5 2.27996 16.5 2.7 16.5H3.3C3.72004 16.5 3.93006 16.5 4.09049 16.4183C4.23161 16.3464 4.34635 16.2317 4.41825 16.0905C4.5 15.9301 4.5 15.7201 4.5 15.3V10.95C4.5 10.53 4.5 10.32 4.41825 10.1596C4.34635 10.0184 4.23161 9.90369 4.09049 9.83179C3.93006 9.75004 3.72004 9.75004 3.3 9.75004H2.7C2.27996 9.75004 2.06994 9.75004 1.90951 9.83179C1.76839 9.90369 1.65365 10.0184 1.58175 10.1595C1.5 10.32 1.5 10.53 1.5 10.95ZM12.8935 2.69423C12.4459 1.75759 11.4139 1.26138 10.4103 1.74032C9.40671 2.21926 8.97915 3.35508 9.39934 4.35216C9.65903 4.96839 10.4031 6.16504 10.9336 6.98932C11.1296 7.29388 11.2276 7.44615 11.3707 7.53524C11.4935 7.61165 11.6472 7.65284 11.7918 7.64806C11.9603 7.64249 12.1213 7.55961 12.4434 7.39387C13.3149 6.94528 14.5576 6.28096 15.0906 5.87714C15.9531 5.22373 16.1667 4.02273 15.521 3.10972C14.8753 2.19672 13.7495 2.10688 12.8935 2.69423Z" stroke="#6F767D" stroke-width="1.25" stroke-linecap="round" stroke-linejoin="round"/>
</svg>
