<svg width="11" height="6" viewBox="0 0 11 6" fill="none" xmlns="http://www.w3.org/2000/svg">
<path d="M4.73517 5.869C4.77001 5.90392 4.81139 5.93163 4.85695 5.95053C4.90251 5.96944 4.95135 5.97917 5.00067 5.97917C5.05 5.97917 5.09884 5.96944 5.1444 5.95053C5.18996 5.93163 5.23134 5.90392 5.26617 5.869L9.89117 1.281C9.92609 1.24616 9.9538 1.20478 9.97271 1.15922C9.99161 1.11366 10.0013 1.06482 10.0013 1.0155C10.0013 0.966173 9.99161 0.917332 9.97271 0.871773C9.9538 0.826215 9.92609 0.784833 9.89117 0.749999L9.27217 0.130999C9.23734 0.0960761 9.19596 0.068369 9.1504 0.0494642C9.10484 0.0305593 9.056 0.0208282 9.00667 0.0208282C8.95735 0.0208282 8.90851 0.0305593 8.86295 0.0494642C8.81739 0.068369 8.77601 0.0960761 8.74117 0.130999L5.00117 3.834L1.26017 0.130999C1.22534 0.0960761 1.18396 0.068369 1.1384 0.0494642C1.09284 0.0305593 1.044 0.0208282 0.994672 0.0208282C0.945346 0.0208282 0.896505 0.0305593 0.850946 0.0494642C0.805388 0.068369 0.764006 0.0960761 0.729172 0.130999L0.110172 0.749999C0.0752498 0.784833 0.0475427 0.826215 0.0286379 0.871773C0.00973305 0.917332 1.90735e-06 0.966173 1.90735e-06 1.0155C1.90735e-06 1.06482 0.00973305 1.11366 0.0286379 1.15922C0.0475427 1.20478 0.0752498 1.24616 0.110172 1.281L4.73517 5.869Z" fill="#6F767D"/>
</svg>
