<svg width="21" height="18" viewBox="0 0 21 18" fill="none" xmlns="http://www.w3.org/2000/svg">
<g clip-path="url(#clip0_496_2976)">
<path d="M16.2857 0.75H4.28571C3.14949 0.751191 2.06019 1.14666 1.25676 1.84967C0.453327 2.55267 0.00136102 3.5058 0 4.5L0 13.5C0.00136102 14.4942 0.453327 15.4473 1.25676 16.1503C2.06019 16.8533 3.14949 17.2488 4.28571 17.25H16.2857C17.4219 17.2488 18.5112 16.8533 19.3147 16.1503C20.1181 15.4473 20.5701 14.4942 20.5714 13.5V4.5C20.5701 3.5058 20.1181 2.55267 19.3147 1.84967C18.5112 1.14666 17.4219 0.751191 16.2857 0.75ZM4.28571 2.25H16.2857C16.799 2.25088 17.3002 2.38614 17.7248 2.63835C18.1495 2.89057 18.4782 3.24821 18.6686 3.66525L12.1046 9.4095C11.6215 9.83049 10.9675 10.0669 10.2857 10.0669C9.60393 10.0669 8.94992 9.83049 8.46686 9.4095L1.90286 3.66525C2.09327 3.24821 2.42195 2.89057 2.84661 2.63835C3.27127 2.38614 3.77247 2.25088 4.28571 2.25ZM16.2857 15.75H4.28571C3.60373 15.75 2.94968 15.5129 2.46744 15.091C1.9852 14.669 1.71429 14.0967 1.71429 13.5V5.625L7.25486 10.47C8.0594 11.1722 9.14936 11.5665 10.2857 11.5665C11.4221 11.5665 12.512 11.1722 13.3166 10.47L18.8571 5.625V13.5C18.8571 14.0967 18.5862 14.669 18.104 15.091C17.6218 15.5129 16.9677 15.75 16.2857 15.75Z" fill="#3D4953"/>
</g>
<defs>
<clipPath id="clip0_496_2976">
<rect width="20.5714" height="18" fill="white"/>
</clipPath>
</defs>
</svg>
