<svg width="24" height="24" viewBox="0 0 24 24" fill="none" xmlns="http://www.w3.org/2000/svg">
<g clip-path="url(#clip0_37_869)">
<g clip-path="url(#clip1_37_869)">
<path d="M19.902 2.89063H3.64563C2.32851 2.88848 1.25899 3.9545 1.25684 5.27167C1.25666 5.37884 1.2637 5.48588 1.27795 5.59207C1.31184 5.85394 1.55161 6.03875 1.81352 6.00486C1.8773 5.99661 1.93876 5.97559 1.9942 5.943C2.20515 5.82027 2.44536 5.75685 2.68939 5.7594H6.09368C6.70805 5.76111 7.25388 6.15184 7.45348 6.73286L7.53475 6.99486C7.86376 7.96876 8.77599 8.62535 9.80395 8.62813H20.8583C21.109 8.62836 21.3553 8.69429 21.5726 8.8194C21.646 8.86221 21.7295 8.88462 21.8145 8.88444C22.0786 8.88444 22.2927 8.67036 22.2927 8.4063V5.28126C22.2927 3.96095 21.2223 2.89063 19.902 2.89063Z" fill="#1AA483"/>
<path fill-rule="evenodd" clip-rule="evenodd" d="M20.8583 7.67206C21.2793 7.67179 21.6928 7.78332 22.0566 7.99529C22.7967 8.42009 23.2519 9.20937 23.249 10.0627V12.0619C23.0992 11.8737 22.9382 11.6931 22.7664 11.5214C21.568 10.323 19.9432 9.64891 18.2485 9.64701C16.9842 9.64701 15.7483 10.0219 14.6971 10.7243C13.6459 11.4267 12.8266 12.4251 12.3427 13.5931C11.8589 14.7611 11.7323 16.0464 11.979 17.2864C12.2256 18.5264 12.8344 19.6654 13.7284 20.5594C13.9067 20.7377 14.0948 20.9047 14.2915 21.0597H2.68946C1.36915 21.0597 0.298828 19.9894 0.298828 18.6691V7.19396C0.298604 6.33028 0.765363 5.53397 1.519 5.11222C1.87437 4.90602 2.27864 4.79934 2.68946 4.80333H6.09375C7.12172 4.80611 8.03394 5.4627 8.36295 6.43661L8.44422 6.69861C8.64382 7.27962 9.18965 7.67036 9.80402 7.67206H20.8583Z" fill="#24C486"/>
<path d="M23.2683 16.0389C23.2683 17.0318 22.9738 18.0025 22.4222 18.8281C21.8705 19.6537 21.0865 20.2971 20.1691 20.6771C19.2518 21.0571 18.2423 21.1565 17.2685 20.9628C16.2946 20.7691 15.4001 20.2909 14.698 19.5888C13.9959 18.8867 13.5177 17.9922 13.324 17.0183C13.1303 16.0445 13.2297 15.0351 13.6097 14.1177C13.9897 13.2004 14.6331 12.4163 15.4587 11.8646C16.2843 11.313 17.255 11.0186 18.2479 11.0186C19.5789 11.02 20.855 11.5495 21.7962 12.4906C22.7374 13.4318 23.2668 14.7079 23.2683 16.0389Z" fill="#24C486"/>
<path d="M20.3994 13.529V14.2462H16.0962V13.529C16.0962 13.4819 16.1054 13.4353 16.1235 13.3918C16.1415 13.3483 16.1679 13.3087 16.2012 13.2754C16.2345 13.2421 16.274 13.2157 16.3175 13.1977C16.3611 13.1797 16.4077 13.1704 16.4548 13.1704H20.0408C20.0879 13.1704 20.1345 13.1797 20.178 13.1977C20.2215 13.2157 20.261 13.2421 20.2944 13.2754C20.3277 13.3087 20.3541 13.3483 20.3721 13.3918C20.3901 13.4353 20.3994 13.4819 20.3994 13.529ZM16.0962 18.5494C16.0962 18.6169 16.1152 18.6831 16.1512 18.7403C16.1872 18.7975 16.2386 18.8434 16.2995 18.8727C16.3604 18.9019 16.4283 18.9134 16.4954 18.9057C16.5626 18.8981 16.6262 18.8716 16.6789 18.8293L18.2478 17.5743L19.8166 18.8293C19.8695 18.8713 19.9332 18.8976 20.0003 18.9052C20.0673 18.9129 20.1352 18.9016 20.1962 18.8726C20.2574 18.8438 20.3091 18.798 20.3451 18.7407C20.3811 18.6834 20.3999 18.617 20.3994 18.5494V14.9634H16.0962V18.5494Z" fill="white"/>
</g>
</g>
<defs>
<clipPath id="clip0_37_869">
<rect width="23" height="23" fill="white" transform="translate(0.306641 0.5)"/>
</clipPath>
<clipPath id="clip1_37_869">
<rect width="22.9502" height="22.9502" fill="white" transform="translate(0.298828 0.5)"/>
</clipPath>
</defs>
</svg>
