<svg width="24" height="23" viewBox="0 0 24 23" fill="none" xmlns="http://www.w3.org/2000/svg">
<g clip-path="url(#clip0_37_854)">
<g clip-path="url(#clip1_37_854)">
<path d="M19.902 2.39063H3.64563C2.32851 2.38848 1.25899 3.4545 1.25684 4.77167C1.25666 4.87884 1.2637 4.98588 1.27795 5.09207C1.31184 5.35394 1.55161 5.53875 1.81352 5.50486C1.8773 5.49661 1.93876 5.47559 1.9942 5.443C2.20515 5.32027 2.44536 5.25685 2.68939 5.2594H6.09368C6.70805 5.26111 7.25388 5.65184 7.45348 6.23286L7.53475 6.49486C7.86376 7.46876 8.77599 8.12535 9.80395 8.12813H20.8583C21.109 8.12836 21.3553 8.19429 21.5726 8.3194C21.646 8.36221 21.7295 8.38462 21.8145 8.38444C22.0786 8.38444 22.2927 8.17036 22.2927 7.9063V4.78126C22.2927 3.46095 21.2223 2.39063 19.902 2.39063Z" fill="#E10A3B"/>
<path fill-rule="evenodd" clip-rule="evenodd" d="M20.8583 7.17206C21.2793 7.17179 21.6928 7.28332 22.0566 7.49529C22.7967 7.92009 23.2519 8.70937 23.249 9.56274V11.5619C23.0992 11.3737 22.9382 11.1931 22.7664 11.0214C21.568 9.823 19.9432 9.14891 18.2485 9.14701C16.9842 9.14701 15.7483 9.52191 14.6971 10.2243C13.6459 10.9267 12.8266 11.9251 12.3427 13.0931C11.8589 14.2611 11.7323 15.5464 11.979 16.7864C12.2256 18.0264 12.8344 19.1654 13.7284 20.0594C13.9067 20.2377 14.0948 20.4047 14.2915 20.5597H2.68946C1.36915 20.5597 0.298828 19.4894 0.298828 18.1691V6.69396C0.298604 5.83028 0.765363 5.03397 1.519 4.61222C1.87437 4.40602 2.27864 4.29934 2.68946 4.30333H6.09375C7.12172 4.30611 8.03394 4.9627 8.36295 5.93661L8.44422 6.19861C8.64382 6.77962 9.18965 7.17036 9.80402 7.17206H20.8583Z" fill="#FF2459"/>
<path d="M23.2683 15.5389C23.2683 16.5318 22.9738 17.5025 22.4222 18.3281C21.8705 19.1537 21.0865 19.7971 20.1691 20.1771C19.2518 20.5571 18.2423 20.6565 17.2685 20.4628C16.2946 20.2691 15.4001 19.7909 14.698 19.0888C13.9959 18.3867 13.5177 17.4922 13.324 16.5183C13.1303 15.5445 13.2297 14.5351 13.6097 13.6177C13.9897 12.7004 14.6331 11.9163 15.4587 11.3646C16.2843 10.813 17.255 10.5186 18.2479 10.5186C19.5789 10.52 20.855 11.0495 21.7962 11.9906C22.7374 12.9318 23.2668 14.2079 23.2683 15.5389Z" fill="#FF2459"/>
<path d="M20.3994 13.029V13.7462H16.0962V13.029C16.0962 12.9819 16.1054 12.9353 16.1235 12.8918C16.1415 12.8483 16.1679 12.8087 16.2012 12.7754C16.2345 12.7421 16.274 12.7157 16.3175 12.6977C16.3611 12.6797 16.4077 12.6704 16.4548 12.6704H20.0408C20.0879 12.6704 20.1345 12.6797 20.178 12.6977C20.2215 12.7157 20.261 12.7421 20.2944 12.7754C20.3277 12.8087 20.3541 12.8483 20.3721 12.8918C20.3901 12.9353 20.3994 12.9819 20.3994 13.029ZM16.0962 18.0494C16.0962 18.1169 16.1152 18.1831 16.1512 18.2403C16.1872 18.2975 16.2386 18.3434 16.2995 18.3727C16.3604 18.4019 16.4283 18.4134 16.4954 18.4057C16.5626 18.3981 16.6262 18.3716 16.6789 18.3293L18.2478 17.0743L19.8166 18.3293C19.8695 18.3713 19.9332 18.3976 20.0003 18.4052C20.0673 18.4129 20.1352 18.4016 20.1962 18.3726C20.2574 18.3438 20.3091 18.298 20.3451 18.2407C20.3811 18.1834 20.3999 18.117 20.3994 18.0494V14.4634H16.0962V18.0494Z" fill="white"/>
</g>
</g>
<defs>
<clipPath id="clip0_37_854">
<rect width="23" height="23" fill="white" transform="translate(0.306641)"/>
</clipPath>
<clipPath id="clip1_37_854">
<rect width="22.9502" height="22.9502" fill="white" transform="translate(0.298828)"/>
</clipPath>
</defs>
</svg>
