<svg width="14" height="4" viewBox="0 0 14 4" fill="none" xmlns="http://www.w3.org/2000/svg">
<path d="M0 2C0 1.60218 0.158035 1.22064 0.43934 0.93934C0.720644 0.658035 1.10218 0.5 1.5 0.5C1.89782 0.5 2.27936 0.658035 2.56066 0.93934C2.84196 1.22064 3 1.60218 3 2C3 2.39782 2.84196 2.77936 2.56066 3.06066C2.27936 3.34196 1.89782 3.5 1.5 3.5C1.10218 3.5 0.720644 3.34196 0.43934 3.06066C0.158035 2.77936 0 2.39782 0 2ZM5.5 2C5.5 1.60218 5.65804 1.22064 5.93934 0.93934C6.22064 0.658035 6.60218 0.5 7 0.5C7.39782 0.5 7.77936 0.658035 8.06066 0.93934C8.34196 1.22064 8.5 1.60218 8.5 2C8.5 2.39782 8.34196 2.77936 8.06066 3.06066C7.77936 3.34196 7.39782 3.5 7 3.5C6.60218 3.5 6.22064 3.34196 5.93934 3.06066C5.65804 2.77936 5.5 2.39782 5.5 2ZM12.5 0.5C12.1022 0.5 11.7206 0.658035 11.4393 0.93934C11.158 1.22064 11 1.60218 11 2C11 2.39782 11.158 2.77936 11.4393 3.06066C11.7206 3.34196 12.1022 3.5 12.5 3.5C12.8978 3.5 13.2794 3.34196 13.5607 3.06066C13.842 2.77936 14 2.39782 14 2C14 1.60218 13.842 1.22064 13.5607 0.93934C13.2794 0.658035 12.8978 0.5 12.5 0.5Z" fill="#6F767D"/>
</svg>
