<svg width="24" height="24" viewBox="0 0 24 24" fill="none" xmlns="http://www.w3.org/2000/svg">
<rect width="24" height="24" rx="12" fill="url(#paint0_linear_83_1015)"/>
<path d="M15.6 5.80226V4.60226C15.6 4.30226 15.375 4.00226 15 4.00226C14.625 4.00226 14.475 4.30226 14.475 4.60226V5.72726H9.6V4.60226C9.6 4.30226 9.375 4.00226 9 4.00226C8.625 4.00226 8.475 4.30226 8.475 4.60226V5.80226C6.45 5.95226 5.4 7.15226 5.25 8.95226C5.25 9.17726 5.4 9.32726 5.625 9.32726H18.3C18.525 9.32726 18.675 9.10226 18.675 8.95226C18.6 7.15226 17.625 5.95226 15.6 5.80226Z" fill="white"/>
<path d="M17.25 14.3523C15.6 14.3523 14.25 15.7023 14.25 17.3523C14.25 17.9523 14.4 18.4773 14.7 18.9273C15.225 19.8273 16.2 20.3523 17.25 20.3523C18.3 20.3523 19.275 19.7523 19.8 18.9273C20.1 18.4773 20.25 17.9523 20.25 17.3523C20.25 15.7023 18.9 14.3523 17.25 14.3523ZM18.825 17.0523L17.25 18.5523C17.175 18.6273 17.025 18.7023 16.875 18.7023C16.725 18.7023 16.575 18.6273 16.5 18.5523L15.75 17.8023C15.525 17.5773 15.525 17.2023 15.75 16.9773C15.975 16.7523 16.35 16.7523 16.575 16.9773L16.95 17.3523L18.15 16.2273C18.375 16.0023 18.75 16.0023 18.975 16.2273C19.05 16.4523 19.05 16.8273 18.825 17.0523Z" fill="white"/>
<path d="M18 10.4523H6C5.625 10.4523 5.25 10.7523 5.25 11.2023V15.8523C5.25 18.1023 6.375 19.6023 9 19.6023H12.675C13.2 19.6023 13.575 19.0773 13.35 18.6273C13.2 18.1773 13.05 17.7273 13.05 17.3523C13.05 15.1023 14.925 13.2273 17.175 13.2273C17.4 13.2273 17.625 13.2273 17.85 13.3023C18.3 13.3773 18.675 13.0023 18.675 12.5523V11.2773C18.75 10.8273 18.375 10.4523 18 10.4523Z" fill="white"/>
<defs>
<linearGradient id="paint0_linear_83_1015" x1="12" y1="0" x2="12" y2="24" gradientUnits="userSpaceOnUse">
<stop stop-color="#FFE090"/>
<stop offset="0.963542" stop-color="#FBA758"/>
<stop offset="1" stop-color="#FAA556"/>
</linearGradient>
</defs>
</svg>
