<svg width="14" height="12" viewBox="0 0 14 12" fill="none" xmlns="http://www.w3.org/2000/svg">
<path d="M7 10.375C7.34518 10.375 7.625 10.0952 7.625 9.75C7.625 9.40482 7.34518 9.125 7 9.125V10.375ZM1 9.125C0.654822 9.125 0.375 9.40482 0.375 9.75C0.375 10.0952 0.654822 10.375 1 10.375L1 9.125ZM7 1.625C6.65482 1.625 6.375 1.90482 6.375 2.25C6.375 2.59518 6.65482 2.875 7 2.875V1.625ZM13 2.875C13.3452 2.875 13.625 2.59518 13.625 2.25C13.625 1.90482 13.3452 1.625 13 1.625V2.875ZM7 9.125L1 9.125L1 10.375L7 10.375V9.125ZM7 2.875L13 2.875V1.625L7 1.625V2.875ZM0.375 2.25C0.375 3.42361 1.32639 4.375 2.5 4.375V3.125C2.01675 3.125 1.625 2.73325 1.625 2.25H0.375ZM2.5 4.375C3.67361 4.375 4.625 3.42361 4.625 2.25H3.375C3.375 2.73325 2.98325 3.125 2.5 3.125V4.375ZM4.625 2.25C4.625 1.07639 3.67361 0.125 2.5 0.125V1.375C2.98325 1.375 3.375 1.76675 3.375 2.25H4.625ZM2.5 0.125C1.32639 0.125 0.375 1.07639 0.375 2.25H1.625C1.625 1.76675 2.01675 1.375 2.5 1.375V0.125ZM13.625 9.75C13.625 8.57639 12.6736 7.625 11.5 7.625V8.875C11.9832 8.875 12.375 9.26675 12.375 9.75H13.625ZM11.5 7.625C10.3264 7.625 9.375 8.5764 9.375 9.75H10.625C10.625 9.26675 11.0168 8.875 11.5 8.875V7.625ZM9.375 9.75C9.375 10.9236 10.3264 11.875 11.5 11.875V10.625C11.0168 10.625 10.625 10.2332 10.625 9.75H9.375ZM11.5 11.875C12.6736 11.875 13.625 10.9236 13.625 9.75H12.375C12.375 10.2332 11.9832 10.625 11.5 10.625V11.875Z" fill="#3D4953"/>
</svg>
