<svg width="15" height="13" viewBox="0 0 15 13" fill="none" xmlns="http://www.w3.org/2000/svg">
<path fill-rule="evenodd" clip-rule="evenodd" d="M2.21484 10.8792C5.869 10.4501 9.53683 9.72206 12.8011 10.8876C13.0139 10.9635 13.0586 11.9086 13.0129 12.1355C10.0493 11.5339 5.04316 11.6775 2.0354 12.1383C1.97397 11.726 2.02735 11.0768 2.21484 10.8792Z" fill="#6F767D"/>
<path fill-rule="evenodd" clip-rule="evenodd" d="M7.50797 0.340851C7.52189 0.442749 7.53578 0.544687 7.54966 0.646663C7.71167 0.646663 7.69588 0.85046 7.56576 0.85046V1.09449C7.72614 1.09449 7.72311 1.33235 7.56897 1.33235V1.55472C7.7098 1.55472 7.70641 1.78641 7.57218 1.78641V1.92849C8.34554 2.77663 8.90261 3.11237 9.91254 3.76021C11.4645 4.75591 11.848 5.69605 12.0657 7.21195C12.0842 7.34063 12.0904 7.44312 12.1058 7.51573C12.1579 7.75976 12.2627 7.56568 12.2627 8.11588V8.44917L12.4372 8.54606V9.38815L12.9719 9.52604L12.8011 9.57006V11.0978C11.2536 10.9368 9.40298 10.8268 7.53859 10.8268C5.66797 10.8268 3.78355 10.9374 2.21485 11.0993V9.57011L2.04407 9.52609L2.57875 9.38821V8.54612L2.75328 8.44923V8.11925C2.75328 7.80267 2.70214 7.85449 2.85126 7.61611C2.89968 7.53913 2.92255 7.40428 2.95027 7.21218C3.16814 5.70205 3.55473 4.75381 5.10339 3.76045C6.11332 3.1126 6.67039 2.77686 7.44376 1.92872V1.78664C7.30953 1.78664 7.30614 1.55496 7.44696 1.55496V1.33258C7.29301 1.33258 7.28962 1.09473 7.45017 1.09473V0.850692C7.32006 0.850692 7.30426 0.646895 7.46627 0.646895C7.48011 0.544919 7.49401 0.442982 7.50797 0.341084V0.340851ZM14.7961 11.353C14.804 11.3565 14.8118 11.36 14.8194 11.3636C14.7981 11.36 14.7766 11.3565 14.755 11.353H14.7961Z" fill="#6F767D"/>
<path fill-rule="evenodd" clip-rule="evenodd" d="M8.0963 2.45777C8.17049 2.52596 8.24409 2.59071 8.3178 2.65295C7.77271 2.88126 7.2278 2.88115 6.68289 2.66582C6.75848 2.60235 6.83419 2.53632 6.9099 2.46674C7.25872 2.46076 7.61266 2.45773 7.97169 2.45766L8.0963 2.45777Z" fill="#6F767D"/>
<path fill-rule="evenodd" clip-rule="evenodd" d="M12.2626 8.36661V8.44924L12.4371 8.54613V8.58613C11.0469 8.48079 9.4706 8.40195 7.89422 8.40195C6.01772 8.40195 4.14129 8.51364 2.5787 8.64878V8.54613L2.75324 8.44924C4.26965 8.2968 6.05718 8.20876 7.97162 8.20876C9.5086 8.20858 10.9635 8.26535 12.2626 8.36661Z" fill="white"/>
<path fill-rule="evenodd" clip-rule="evenodd" d="M11.4708 10.6445C11.5162 9.42752 12.0187 9.4486 12.0482 10.7072C11.8591 10.6849 11.6667 10.664 11.4708 10.6445Z" fill="white"/>
<path fill-rule="evenodd" clip-rule="evenodd" d="M9.89539 10.5231C9.94017 9.36588 10.4643 9.37851 10.4983 10.5615C10.2999 10.5473 10.0989 10.5345 9.89539 10.5231Z" fill="white"/>
<path fill-rule="evenodd" clip-rule="evenodd" d="M8.01904 10.4621C8.05336 9.29336 8.64468 9.29755 8.6753 10.4737C8.45861 10.4682 8.23985 10.4643 8.01904 10.4621Z" fill="white"/>
<path fill-rule="evenodd" clip-rule="evenodd" d="M6.24564 10.4808C6.26428 9.28715 6.87969 9.28215 6.90359 10.4652C6.68222 10.4688 6.4629 10.474 6.24564 10.4808Z" fill="white"/>
<path fill-rule="evenodd" clip-rule="evenodd" d="M4.49124 10.575C4.51878 9.34603 5.13879 9.33048 5.18115 10.5284C4.94783 10.5421 4.71786 10.5576 4.49124 10.575Z" fill="white"/>
<path fill-rule="evenodd" clip-rule="evenodd" d="M2.96701 10.726C2.99122 9.44439 3.63271 9.41796 3.68222 10.6463C3.43869 10.6706 3.20029 10.6972 2.96701 10.726Z" fill="white"/>
<path fill-rule="evenodd" clip-rule="evenodd" d="M12.1039 8.92154V9.3774H11.9412V8.92154C11.9412 8.69864 12.1039 8.69864 12.1039 8.92154Z" fill="white"/>
<path fill-rule="evenodd" clip-rule="evenodd" d="M11.7572 8.92154V9.3774H11.5945V8.92154C11.5945 8.69864 11.7572 8.69864 11.7572 8.92154Z" fill="white"/>
<path fill-rule="evenodd" clip-rule="evenodd" d="M10.59 8.85925V9.31506H10.4273V8.85925C10.4273 8.63635 10.59 8.63635 10.59 8.85925Z" fill="white"/>
<path fill-rule="evenodd" clip-rule="evenodd" d="M10.1462 8.85925V9.31506H9.98352V8.85925C9.98352 8.63635 10.1462 8.63635 10.1462 8.85925Z" fill="white"/>
<path fill-rule="evenodd" clip-rule="evenodd" d="M8.87633 8.84942V9.2785H8.71365V8.84942C8.71365 8.63963 8.87633 8.63963 8.87633 8.84942Z" fill="white"/>
<path fill-rule="evenodd" clip-rule="evenodd" d="M8.24284 8.84942V9.2785H8.08017V8.84942C8.08017 8.63963 8.24284 8.63963 8.24284 8.84942Z" fill="white"/>
<path fill-rule="evenodd" clip-rule="evenodd" d="M7.12987 8.84942V9.2785H6.96719V8.84942C6.96719 8.63963 7.12987 8.63963 7.12987 8.84942Z" fill="white"/>
<path fill-rule="evenodd" clip-rule="evenodd" d="M6.49632 8.85925V9.31506H6.33389V8.85925C6.33389 8.63635 6.49632 8.63635 6.49632 8.85925Z" fill="white"/>
<path fill-rule="evenodd" clip-rule="evenodd" d="M5.16447 8.85925V9.31506H5.0018V8.85925C5.0018 8.63635 5.16447 8.63635 5.16447 8.85925Z" fill="white"/>
<path fill-rule="evenodd" clip-rule="evenodd" d="M4.72072 8.85925V9.31506H4.55804V8.85925C4.55804 8.63635 4.72072 8.63635 4.72072 8.85925Z" fill="white"/>
<path fill-rule="evenodd" clip-rule="evenodd" d="M3.61125 8.92154V9.3774H3.44858V8.92154C3.44858 8.69864 3.61125 8.69864 3.61125 8.92154Z" fill="white"/>
<path fill-rule="evenodd" clip-rule="evenodd" d="M3.26451 8.92154V9.3774H3.1019V8.92154C3.1019 8.69864 3.26451 8.69864 3.26451 8.92154Z" fill="white"/>
<path fill-rule="evenodd" clip-rule="evenodd" d="M12.4372 9.30174V9.38821L12.9719 9.52609L12.9021 9.54408C11.404 9.42087 9.64917 9.32322 7.89426 9.32322C5.86961 9.32322 3.84515 9.45319 2.21485 9.60243V9.57011L2.04407 9.52609L2.57875 9.38821C4.13177 9.22476 5.98327 9.12979 7.97166 9.12979C9.5777 9.12979 11.0948 9.1918 12.4372 9.30174Z" fill="white"/>
<path opacity="0.5" fill-rule="evenodd" clip-rule="evenodd" d="M7.508 0.340851L7.54975 0.646663C7.7117 0.646663 7.69591 0.85046 7.56579 0.85046V1.09449C7.72616 1.09449 7.72314 1.33235 7.569 1.33235V1.55472C7.70983 1.55472 7.70644 1.78641 7.57221 1.78641V1.92849C7.75661 2.13071 7.92866 2.30376 8.09757 2.45888C7.91538 2.54971 7.71319 2.59711 7.508 2.59711C7.3028 2.59711 7.10061 2.54971 6.91843 2.45888C7.08733 2.30376 7.25939 2.13071 7.44379 1.92849V1.78641C7.30956 1.78641 7.30617 1.55472 7.44699 1.55472V1.33235C7.29303 1.33235 7.28965 1.09449 7.4502 1.09449V0.85046C7.32009 0.85046 7.30429 0.646663 7.46624 0.646663L7.508 0.340851Z" fill="#6F767D"/>
<path fill-rule="evenodd" clip-rule="evenodd" d="M7.54975 0.646637C7.7117 0.646637 7.69591 0.850434 7.56579 0.850434V0.85975H7.4502V0.850434C7.32009 0.850434 7.30429 0.646637 7.46624 0.646637H7.54975ZM7.56579 1.09452C7.72616 1.09452 7.72314 1.33238 7.569 1.33238H7.44699C7.29303 1.33238 7.28965 1.09452 7.4502 1.09452H7.56579ZM7.569 1.55452C7.70159 1.55452 7.70631 1.75995 7.5943 1.78388H7.4217C7.30968 1.75995 7.3144 1.55452 7.44699 1.55452H7.569ZM7.57221 1.92829C7.75661 2.13051 7.92866 2.30356 8.09757 2.45868C7.91538 2.54951 7.71319 2.59691 7.508 2.59691C7.3028 2.59691 7.10061 2.54951 6.91843 2.45868C7.08733 2.30356 7.25939 2.13051 7.44379 1.92829H7.57221Z" fill="#6F767D"/>
<path fill-rule="evenodd" clip-rule="evenodd" d="M12.1058 7.51575C12.1555 7.74866 12.2531 7.58271 12.262 8.04446C10.9064 7.9322 9.41561 7.85307 7.9248 7.85307C6.12135 7.85307 4.31754 7.96888 2.75327 8.11905V7.80148C2.76537 7.75775 2.79309 7.70889 2.85131 7.6159C4.38127 7.45036 6.13872 7.35603 8.00832 7.35603C9.45973 7.35603 10.8435 7.41286 12.1058 7.51575Z" fill="white"/>
<path fill-rule="evenodd" clip-rule="evenodd" d="M12.8011 10.8481C12.9149 10.9 12.9639 11.1179 12.9712 11.2431C9.25484 10.7202 5.77679 10.7307 2.06036 11.2516C2.03427 11.1422 2.15936 10.8481 2.21486 10.8388C5.21645 10.3377 9.86698 10.1908 12.8011 10.8481Z" fill="white"/>
<path fill-rule="evenodd" clip-rule="evenodd" d="M14.8194 12.6387H0.196503C2.89744 11.3949 12.0997 11.3862 14.8194 12.6387Z" fill="#6F767D"/>
</svg>
