<svg width="14" height="16" viewBox="0 0 14 16" fill="none" xmlns="http://www.w3.org/2000/svg">
<g clip-path="url(#clip0_83_816)">
<path fill-rule="evenodd" clip-rule="evenodd" d="M6.68825 4.30362L6.69608 5.05966C6.42247 5.18518 5.42705 5.41358 5.05528 5.4703C5.0541 4.75253 4.99113 4.76059 5.21567 4.65351L6.6878 4.30362H6.68825ZM13.218 3.12051L6.81877 0.526343L6.75358 0.5L6.68854 0.525569L0.116776 3.11989L0 3.16637V12.7661L0.1153 12.8126L6.6099 15.4726L6.67613 15.4997L6.7422 15.4726L13.2186 12.8126L13.3333 12.7661V3.1673L13.218 3.12082V3.12051ZM12.971 4.9938L6.73659 3.0218C6.41981 3.00134 3.94353 3.85672 3.47406 4.00873L0.362306 4.9938V5.63781C0.456467 5.6093 0.597043 5.57583 0.804877 5.51679C1.7759 5.24112 6.21345 3.91343 6.70081 3.82774L12.971 5.64447V4.99365V4.9938ZM12.971 5.95842V6.60506C12.7769 6.54974 12.5384 6.50108 12.3554 6.45754C12.2099 6.42268 12.0667 6.39013 11.9222 6.35852C11.4408 6.25284 11.5314 6.33419 11.531 5.59922L12.971 5.95842ZM0.36201 6.63171V5.97004C0.80473 5.85816 1.4915 5.61085 1.80591 5.61937L1.79113 6.26245L0.362306 6.63048L0.36201 6.63171ZM7.47746 14.433L7.48145 4.49468C7.91013 4.5672 8.44582 4.74416 8.86445 4.85945C9.15477 4.93941 10.0322 5.08306 10.183 5.29008L10.1771 13.3408L7.47746 14.433Z" fill="#6F767D"/>
</g>
<defs>
<clipPath id="clip0_83_816">
<rect width="13.3333" height="15" fill="white" transform="translate(0 0.5)"/>
</clipPath>
</defs>
</svg>
