<svg width="24" height="24" viewBox="0 0 24 24" fill="none" xmlns="http://www.w3.org/2000/svg">
<path d="M12 24C18.6274 24 24 18.6274 24 12C24 5.37258 18.6274 0 12 0C5.37258 0 0 5.37258 0 12C0 18.6274 5.37258 24 12 24Z" fill="url(#paint0_linear_83_1006)"/>
<path d="M18.6213 5.37876C18.497 5.25439 18.3104 5.21613 18.1473 5.28149L4.02626 10.9299C3.86465 10.9945 3.75646 11.1484 3.75028 11.3223C3.7441 11.4962 3.84113 11.6574 3.99766 11.7333L9.56602 14.4339L12.2667 20.0023C12.3403 20.1542 12.4941 20.25 12.662 20.25C12.6672 20.25 12.6724 20.2499 12.6777 20.2497C12.8516 20.2435 13.0054 20.1353 13.0701 19.9737L18.7186 5.85272C18.7838 5.68951 18.7456 5.50307 18.6213 5.37876Z" fill="white" fill-opacity="0.9"/>
<path d="M18.6213 5.37877L9.56607 14.4339L12.2667 20.0023C12.3404 20.1542 12.4942 20.25 12.662 20.25C12.6672 20.25 12.6725 20.2499 12.6777 20.2497C12.8516 20.2435 13.0055 20.1353 13.0701 19.9737L18.7186 5.85273C18.7839 5.68952 18.7456 5.50308 18.6213 5.37877Z" fill="white"/>
<defs>
<linearGradient id="paint0_linear_83_1006" x1="4.30962" y1="-0.123175" x2="18.2557" y2="21.8621" gradientUnits="userSpaceOnUse">
<stop stop-color="#B48CF9"/>
<stop offset="1" stop-color="#A26AFF"/>
</linearGradient>
</defs>
</svg>
