<svg width="40" height="40" viewBox="0 0 40 40" fill="none" xmlns="http://www.w3.org/2000/svg">
<path d="M20 37.04C19.6816 37.0408 19.376 36.914 19.1516 36.6884L14.9816 32.5172C14.9068 32.442 14.8048 32.4 14.6988 32.4H8.80001C8.13721 32.4 7.60001 31.8628 7.60001 31.2V25.9648C7.60161 25.434 7.39081 24.9244 7.01401 24.55L3.31321 20.8484C2.84481 20.3796 2.84481 19.6204 3.31321 19.1516L7.01521 15.4496C7.39121 15.0752 7.60201 14.566 7.60001 14.0352V8.8C7.60001 8.1372 8.13721 7.6 8.80001 7.6H14.6988C14.8048 7.6 14.9068 7.558 14.9816 7.4828L19.1524 3.3124C19.6272 2.8592 20.3748 2.8592 20.8496 3.3124L25.0204 7.4828C25.0952 7.558 25.1972 7.6004 25.3032 7.6H31.2C31.8628 7.6 32.4 8.1372 32.4 8.8V14.698C32.3996 14.804 32.4416 14.906 32.5172 14.9804L36.6888 19.1516C37.1572 19.6204 37.1572 20.3796 36.6888 20.8484L32.52 25.0192C32.4448 25.094 32.4024 25.196 32.4028 25.302V31.2C32.4028 31.8628 31.8656 32.4 31.2028 32.4H25.3032C25.1972 32.3996 25.0952 32.442 25.0204 32.5172L20.8496 36.6876C20.6248 36.914 20.3188 37.0408 20 37.04ZM15.5472 31.9516L19.72 36.122C19.878 36.2736 20.1276 36.2736 20.2856 36.122L24.4548 31.9516C24.6792 31.7256 24.9848 31.5992 25.3032 31.6H31.2C31.4208 31.6 31.6 31.4208 31.6 31.2V25.302C31.5992 24.9832 31.726 24.6776 31.952 24.4532L36.1232 20.2828C36.2792 20.1268 36.2792 19.8732 36.1232 19.7172L31.9524 15.5464C31.7264 15.322 31.5992 15.0164 31.6 14.698V8.8C31.6 8.5792 31.4208 8.4 31.2 8.4H25.3032C24.9848 8.4008 24.6792 8.2744 24.4548 8.0484L20.2836 3.88C20.1256 3.7284 19.8764 3.7284 19.7184 3.88L15.5472 8.0484C15.3228 8.2744 15.0172 8.4008 14.6988 8.4H8.80001C8.57921 8.4 8.40001 8.5792 8.40001 8.8V14.0352C8.40241 14.7784 8.10681 15.4916 7.58001 16.0156L3.88001 19.7172C3.72401 19.8732 3.72401 20.1268 3.88001 20.2828L7.58001 23.984C8.10721 24.508 8.40241 25.2216 8.40001 25.9648V31.2C8.40001 31.4208 8.57921 31.6 8.80001 31.6H14.6988C15.0172 31.5992 15.3228 31.7256 15.5472 31.9516Z" fill="#17B686" stroke="#17B686" stroke-width="0.5"/>
<path d="M8 15L3.5 20L7.5 24.5L8 26.5L8.5 32H9H15L20 37L25 32L32 31.5V25.5L36.5 20L32 15V8H25.5L20 3.5L14.5 8H8V15Z" fill="#17B686" fill-opacity="0.06"/>
</svg>
