<svg width="18" height="18" viewBox="0 0 18 18" fill="none" xmlns="http://www.w3.org/2000/svg">
<path d="M14.692 13.0581C14.4479 12.8141 14.0522 12.814 13.8081 13.0581C13.564 13.3022 13.564 13.6979 13.8081 13.942L14.692 13.0581ZM16.808 16.942C17.0521 17.186 17.4478 17.186 17.6919 16.942C17.936 16.6979 17.936 16.3022 17.6919 16.0581L16.808 16.942ZM7.01112 3.66347C7.35204 3.60947 7.58465 3.28932 7.53065 2.94839C7.47665 2.60747 7.1565 2.37486 6.81557 2.42886L7.01112 3.66347ZM3.17884 6.0656C3.12484 6.40652 3.35744 6.72667 3.69837 6.78067C4.0393 6.83467 4.35945 6.60207 4.41345 6.26114L3.17884 6.0656ZM13.8081 13.942L16.808 16.942L17.6919 16.0581L14.692 13.0581L13.8081 13.942ZM8.25 13.625C4.86726 13.625 2.125 10.8827 2.125 7.5H0.875C0.875 11.5731 4.1769 14.875 8.25 14.875V13.625ZM14.375 7.5C14.375 10.8827 11.6327 13.625 8.25 13.625V14.875C12.3231 14.875 15.625 11.5731 15.625 7.5H14.375ZM8.25 1.375C11.6327 1.375 14.375 4.11726 14.375 7.5H15.625C15.625 3.4269 12.3231 0.125 8.25 0.125V1.375ZM8.25 0.125C4.1769 0.125 0.875 3.4269 0.875 7.5H2.125C2.125 4.11726 4.86726 1.375 8.25 1.375V0.125ZM6.81557 2.42886C4.94354 2.72536 3.47534 4.19357 3.17884 6.0656L4.41345 6.26114C4.62523 4.92397 5.67395 3.87526 7.01112 3.66347L6.81557 2.42886Z" fill="#3D4953"/>
</svg>
