<svg width="20" height="20" viewBox="0 0 20 20" fill="none" xmlns="http://www.w3.org/2000/svg">
<g clip-path="url(#clip0_91_1039)">
<path d="M15.5942 9.99999H11.6667C11.2247 9.99999 10.8007 9.82439 10.4882 9.51183C10.1756 9.19927 10 8.77535 10 8.33332V4.39499C10.0012 4.01164 9.91412 3.63316 9.74563 3.28882C9.57715 2.94449 9.33173 2.6435 9.02836 2.40915C8.74089 2.1815 8.40493 2.02297 8.04645 1.94581C7.68796 1.86865 7.31653 1.87492 6.96086 1.96415C4.94057 2.46566 3.15197 3.6417 1.89084 5.29779C0.629704 6.95387 -0.0284116 8.9908 0.0253262 11.0717C0.0790641 13.1526 0.841436 15.1529 2.18636 16.7416C3.53129 18.3304 5.37821 19.4126 7.42169 19.8092C9.71928 20.2489 12.0981 19.7937 14.0709 18.5366C16.0437 17.2795 17.4613 15.3158 18.0334 13.0475C18.1229 12.6914 18.1294 12.3194 18.0524 11.9603C17.9754 11.6013 17.8169 11.2647 17.5892 10.9767C17.3521 10.6737 17.0494 10.4284 16.7038 10.2593C16.3583 10.0901 15.9789 10.0015 15.5942 9.99999ZM16.4175 12.64C16.0985 13.9249 15.4438 15.102 14.5206 16.0508C13.5973 16.9997 12.4386 17.6863 11.163 18.0405C9.88729 18.3946 8.54045 18.4036 7.26019 18.0664C5.97994 17.7292 4.81221 17.058 3.87645 16.1215C2.94069 15.185 2.27048 14.0167 1.93438 12.7362C1.59827 11.4556 1.60833 10.1088 1.96352 8.83341C2.31872 7.55803 3.0063 6.39989 3.95594 5.47744C4.90559 4.55498 6.08321 3.90133 7.36836 3.58332C7.4783 3.55585 7.59315 3.55451 7.70371 3.5794C7.81427 3.60429 7.91746 3.65472 8.00503 3.72665C8.10843 3.80549 8.1923 3.90709 8.2501 4.02357C8.30791 4.14005 8.33811 4.26828 8.33836 4.39832V8.33332C8.33836 9.21737 8.68955 10.0652 9.31467 10.6903C9.93979 11.3155 10.7876 11.6667 11.6717 11.6667H15.5984C15.7295 11.6672 15.8589 11.6975 15.9767 11.7552C16.0944 11.8129 16.1976 11.8966 16.2784 12C16.3492 12.0888 16.3985 12.1927 16.4225 12.3038C16.4465 12.4148 16.4445 12.5299 16.4167 12.64H16.4175Z" fill="#788A95"/>
<path d="M19.7092 6.20501C19.3255 4.79458 18.5802 3.50877 17.547 2.47483C16.5138 1.44089 15.2285 0.694673 13.8183 0.310014C13.6705 0.270272 13.5181 0.2501 13.365 0.250014C13.1448 0.247922 12.9264 0.289487 12.7223 0.372308C12.5183 0.455129 12.3327 0.577563 12.1762 0.732536C12.0198 0.887509 11.8956 1.07195 11.8109 1.2752C11.7261 1.47844 11.6825 1.69647 11.6825 1.91668V5.83335C11.6825 6.49639 11.9459 7.13227 12.4147 7.60111C12.8836 8.06996 13.5195 8.33335 14.1825 8.33335H18.115C18.3722 8.33087 18.6254 8.26913 18.8549 8.15291C19.0844 8.0367 19.284 7.86914 19.4382 7.66325C19.5924 7.45737 19.6971 7.2187 19.7441 6.9658C19.7911 6.71289 19.7791 6.45255 19.7092 6.20501ZM17.6275 6.66668H14.1792C13.9581 6.66668 13.7462 6.57888 13.5899 6.4226C13.4336 6.26632 13.3458 6.05436 13.3458 5.83335L13.3392 1.92251C13.3453 1.9181 13.3525 1.9155 13.36 1.91501H13.3817C14.5167 2.22425 15.5509 2.82577 16.3809 3.65955C17.2108 4.49333 17.8076 5.5302 18.1117 6.66668H17.6275Z" fill="#788A95"/>
</g>
<defs>
<clipPath id="clip0_91_1039">
<rect width="20" height="20" fill="white"/>
</clipPath>
</defs>
</svg>
