<svg width="16" height="16" viewBox="0 0 16 16" fill="none" xmlns="http://www.w3.org/2000/svg">
<path d="M7.25 2H4.85C3.58988 2 2.95982 2 2.47852 2.24524C2.05516 2.46095 1.71095 2.80516 1.49524 3.22852C1.25 3.70982 1.25 4.33988 1.25 5.6V9.5C1.25 10.1975 1.25 10.5462 1.32667 10.8323C1.53472 11.6088 2.1412 12.2153 2.91766 12.4233C3.20378 12.5 3.55252 12.5 4.25 12.5V14.2516C4.25 14.6513 4.25 14.8511 4.33192 14.9537C4.40317 15.043 4.5112 15.0949 4.6254 15.0948C4.75672 15.0946 4.91275 14.9698 5.22482 14.7201L7.01391 13.2889C7.37939 12.9965 7.56213 12.8503 7.76561 12.7463C7.94615 12.6541 8.13832 12.5867 8.33691 12.5459C8.56075 12.5 8.79477 12.5 9.26281 12.5H10.4C11.6601 12.5 12.2902 12.5 12.7715 12.2548C13.1948 12.039 13.539 11.6948 13.7548 11.2715C14 10.7902 14 10.1601 14 8.9V8.75M14.091 1.90901C14.9697 2.78769 14.9697 4.21231 14.091 5.09099C13.2123 5.96967 11.7877 5.96967 10.909 5.09099C10.0303 4.21231 10.0303 2.78769 10.909 1.90901C11.7877 1.03033 13.2123 1.03033 14.091 1.90901Z" stroke="#6F767D" stroke-width="1.25" stroke-linecap="round" stroke-linejoin="round"/>
</svg>
