<svg width="18" height="18" viewBox="0 0 18 18" fill="none" xmlns="http://www.w3.org/2000/svg">
<path d="M7.01571 15.75C7.54456 16.2168 8.23924 16.5 9.00008 16.5C9.76091 16.5 10.4556 16.2168 10.9844 15.75M13.5001 6C13.5001 4.80653 13.026 3.66193 12.1821 2.81802C11.3381 1.97411 10.1935 1.5 9.00008 1.5C7.8066 1.5 6.66201 1.97411 5.81809 2.81802C4.97418 3.66193 4.50007 4.80653 4.50007 6C4.50007 8.31764 3.91543 9.90447 3.26232 10.9541C2.71142 11.8394 2.43597 12.2821 2.44607 12.4056C2.45725 12.5423 2.48622 12.5944 2.59641 12.6762C2.69592 12.75 3.14452 12.75 4.04172 12.75H13.9584C14.8556 12.75 15.3042 12.75 15.4037 12.6762C15.5139 12.5944 15.5429 12.5423 15.5541 12.4056C15.5642 12.2821 15.2887 11.8394 14.7378 10.9541C14.0847 9.90447 13.5001 8.31764 13.5001 6Z" stroke="#6F767D" stroke-width="1.25" stroke-linecap="round" stroke-linejoin="round"/>
</svg>
