<svg width="19" height="18" viewBox="0 0 19 18" fill="none" xmlns="http://www.w3.org/2000/svg">
<path d="M16.9 1.62224C16.4724 1.26552 15.9708 1.00848 15.4315 0.869799C14.8923 0.731119 14.3289 0.714276 13.7822 0.820494L12.4592 1.14449C11.7688 1.27101 11.1446 1.63562 10.6953 2.17486C10.2459 2.7141 9.99991 3.39383 10 4.09574V15.696C9.50265 15.7687 8.99735 15.7687 8.5 15.696V4.09574C8.50249 3.4003 8.26213 2.7258 7.82042 2.18865C7.3787 1.65149 6.76333 1.28538 6.0805 1.15349L4.675 0.811494C4.13437 0.712565 3.5786 0.733682 3.04703 0.873351C2.51547 1.01302 2.0211 1.26783 1.59892 1.61973C1.17675 1.97164 0.83709 2.41205 0.603987 2.90977C0.370884 3.4075 0.250037 3.95039 0.25 4.49999L0.25 12.5947C0.250043 13.4728 0.558232 14.3231 1.12085 14.9973C1.68347 15.6714 2.46483 16.1268 3.32875 16.284L8.04325 17.1412C8.84122 17.2862 9.65878 17.2862 10.4567 17.1412L15.175 16.284C16.0382 16.126 16.8187 15.6703 17.3806 14.9962C17.9425 14.3221 18.2501 13.4723 18.25 12.5947V4.49999C18.2503 3.95058 18.1295 3.40784 17.8962 2.91044C17.6629 2.41303 17.3227 1.9732 16.9 1.62224Z" fill="#788A95"/>
</svg>
