<svg width="18" height="18" viewBox="0 0 18 18" fill="none" xmlns="http://www.w3.org/2000/svg">
<g clip-path="url(#clip0_101_7351)">
<path d="M5.625 0C4.7918 0 4.06406 0.453516 3.67734 1.125H1.6875C0.755859 1.125 0 1.88086 0 2.8125V14.0625C0 14.9941 0.755859 15.75 1.6875 15.75H6.75V6.1875C6.75 4.63359 8.00859 3.375 9.5625 3.375H11.25V2.8125C11.25 1.88086 10.4941 1.125 9.5625 1.125H7.57266C7.18594 0.453516 6.4582 0 5.625 0ZM9.5625 4.5C8.63086 4.5 7.875 5.25586 7.875 6.1875V15.75V16.3125C7.875 17.2441 8.63086 18 9.5625 18H16.3125C17.2441 18 18 17.2441 18 16.3125V9H14.625C14.0027 9 13.5 8.49727 13.5 7.875V4.5H11.25H9.5625ZM5.625 1.40625C5.84878 1.40625 6.06339 1.49514 6.22162 1.65338C6.37986 1.81161 6.46875 2.02622 6.46875 2.25C6.46875 2.47378 6.37986 2.68839 6.22162 2.84662C6.06339 3.00486 5.84878 3.09375 5.625 3.09375C5.40122 3.09375 5.18661 3.00486 5.02838 2.84662C4.87014 2.68839 4.78125 2.47378 4.78125 2.25C4.78125 2.02622 4.87014 1.81161 5.02838 1.65338C5.18661 1.49514 5.40122 1.40625 5.625 1.40625ZM14.625 4.5V7.875H18L14.625 4.5Z" fill="#788A95"/>
</g>
<defs>
<clipPath id="clip0_101_7351">
<rect width="18" height="18" fill="white"/>
</clipPath>
</defs>
</svg>
