<svg width="12" height="12" viewBox="0 0 12 12" fill="none" xmlns="http://www.w3.org/2000/svg">
<path d="M11.637 3.37152L8.66404 0.400022C8.45367 0.182391 8.17348 0.0456637 7.87248 0.0137632C7.57148 -0.0181373 7.26885 0.056821 7.01754 0.225522C6.86938 0.330892 6.74598 0.467314 6.65596 0.625275C6.56594 0.783237 6.51146 0.958935 6.49632 1.14012C6.48118 1.3213 6.50575 1.5036 6.56831 1.67431C6.63087 1.84502 6.72992 2.00003 6.85854 2.12852L7.15454 2.42402C7.22996 2.4999 7.27229 2.60254 7.27229 2.70952C7.27229 2.81651 7.22996 2.91914 7.15454 2.99502L6.10454 4.04502C6.01239 4.13677 5.89806 4.20308 5.77267 4.23752C5.64729 4.27195 5.51512 4.27333 5.38904 4.24152L4.97904 4.13652C4.50623 4.0131 4.01503 3.97601 3.52904 4.02702C3.20966 4.06024 2.90643 4.18407 2.65511 4.38393C2.40378 4.58379 2.21484 4.85133 2.11054 5.15502C1.9963 5.46894 1.97406 5.80895 2.04642 6.13507C2.11879 6.4612 2.28275 6.75988 2.51904 6.99602L3.39204 7.90002L0.146541 11.1465C0.0987855 11.1926 0.0606944 11.2478 0.0344899 11.3088C0.00828539 11.3698 -0.00550773 11.4354 -0.00608464 11.5018C-0.00666155 11.5682 0.00598931 11.6341 0.0311298 11.6955C0.0562702 11.7569 0.0933968 11.8128 0.140343 11.8597C0.187289 11.9067 0.243115 11.9438 0.304564 11.9689C0.366012 11.9941 0.431852 12.0067 0.498241 12.0061C0.564631 12.0056 0.630241 11.9918 0.691243 11.9656C0.752245 11.9394 0.807417 11.9013 0.853541 11.8535L4.08704 8.62002L4.71204 9.26702C5.13573 9.71654 5.72014 9.98007 6.33754 10C6.53714 10.0003 6.73531 9.96644 6.92354 9.90002C7.21079 9.8009 7.46314 9.62062 7.65003 9.38101C7.83692 9.14141 7.95033 8.85276 7.97654 8.55002C8.02713 8.06848 7.99089 7.58176 7.86954 7.11302L7.76354 6.60002C7.73382 6.4749 7.73659 6.34426 7.7716 6.22051C7.8066 6.09677 7.87268 5.98403 7.96354 5.89302L9.00804 4.85002C9.08929 4.77549 9.19437 4.73225 9.30454 4.72802C9.35291 4.72792 9.40082 4.73747 9.44546 4.7561C9.49011 4.77473 9.53059 4.80207 9.56454 4.83652L9.81754 5.08952C10.0268 5.31296 10.3089 5.45452 10.6131 5.48879C10.9173 5.52306 11.2238 5.4478 11.4775 5.27652C11.6257 5.17119 11.7492 5.0348 11.8392 4.87686C11.9293 4.71892 11.9838 4.54323 11.999 4.36205C12.0142 4.18086 11.9897 3.99855 11.9272 3.82782C11.8647 3.65709 11.7656 3.50205 11.637 3.37352V3.37152Z" fill="#17B686"/>
</svg>
