<svg width="35" height="34" viewBox="0 0 35 34" fill="none" xmlns="http://www.w3.org/2000/svg">
<rect x="0.5" width="34" height="34" rx="17" fill="#17B686" fill-opacity="0.15"/>
<g clip-path="url(#clip0_101_7344)">
<path d="M23.869 13.9771L16.7155 8.73161C16.1568 8.32247 15.4957 8.07604 14.8055 8.01963C14.1152 7.96323 13.4229 8.09905 12.8051 8.41203C12.1874 8.72502 11.6684 9.20296 11.3056 9.79286C10.9429 10.3828 10.7506 11.0616 10.75 11.7541V22.2504C10.7489 22.9435 10.9402 23.6234 11.3026 24.2143C11.665 24.8053 12.1843 25.284 12.8027 25.5973C13.421 25.9106 14.1142 26.0462 14.805 25.9889C15.4958 25.9316 16.1572 25.6837 16.7155 25.2729L23.869 20.0274C24.3437 19.679 24.7296 19.2238 24.9957 18.6986C25.2617 18.1734 25.4003 17.5929 25.4003 17.0041C25.4003 16.4153 25.2617 15.8349 24.9957 15.3096C24.7296 14.7844 24.3437 14.3292 23.869 13.9809V13.9771Z" fill="#17B686"/>
</g>
<defs>
<clipPath id="clip0_101_7344">
<rect width="18" height="18" fill="white" transform="translate(8.5 8)"/>
</clipPath>
</defs>
</svg>
