<svg width="18" height="14" viewBox="0 0 18 14" fill="none" xmlns="http://www.w3.org/2000/svg">
<path d="M9 13H3.9C3.05992 13 2.63988 13 2.31901 12.8365C2.03677 12.6927 1.8073 12.4632 1.66349 12.181C1.5 11.8601 1.5 11.4401 1.5 10.6V3.4C1.5 2.55992 1.5 2.13988 1.66349 1.81901C1.8073 1.53677 2.03677 1.3073 2.31901 1.16349C2.63988 1 3.05992 1 3.9 1H4.2C5.88016 1 6.72024 1 7.36197 1.32698C7.92646 1.6146 8.3854 2.07354 8.67302 2.63803C9 3.27976 9 4.11984 9 5.8M9 13V5.8M9 13H14.1C14.9401 13 15.3601 13 15.681 12.8365C15.9632 12.6927 16.1927 12.4632 16.3365 12.181C16.5 11.8601 16.5 11.4401 16.5 10.6V3.4C16.5 2.55992 16.5 2.13988 16.3365 1.81901C16.1927 1.53677 15.9632 1.3073 15.681 1.16349C15.3601 1 14.9401 1 14.1 1H13.8C12.1198 1 11.2798 1 10.638 1.32698C10.0735 1.6146 9.6146 2.07354 9.32698 2.63803C9 3.27976 9 4.11984 9 5.8" stroke="#6F767D" stroke-width="1.25" stroke-linecap="round" stroke-linejoin="round"/>
</svg>
