<svg width="16" height="18" viewBox="0 0 16 18" fill="none" xmlns="http://www.w3.org/2000/svg">
<path d="M6.04628 14.5283L6.48462 15.5142C6.61492 15.8076 6.82757 16.057 7.09678 16.232C7.366 16.4069 7.6802 16.5001 8.00128 16.5C8.32237 16.5001 8.63657 16.4069 8.90578 16.232C9.17499 16.057 9.38764 15.8076 9.51795 15.5142L9.95628 14.5283C10.1123 14.1785 10.3748 13.8869 10.7063 13.695C11.0399 13.5026 11.4258 13.4206 11.8088 13.4608L12.8813 13.575C13.2005 13.6088 13.5227 13.5492 13.8088 13.4035C14.0949 13.2578 14.3325 13.0322 14.4929 12.7542C14.6536 12.4763 14.7301 12.1577 14.7132 11.8372C14.6964 11.5166 14.5869 11.2079 14.3979 10.9483L13.7629 10.0758C13.5368 9.76285 13.416 9.38611 13.4179 9C13.4179 8.61494 13.5398 8.23976 13.7663 7.92833L14.4013 7.05583C14.5902 6.79632 14.6997 6.48755 14.7166 6.16701C14.7334 5.84646 14.6569 5.52791 14.4963 5.25C14.3359 4.97193 14.0982 4.74637 13.8121 4.60067C13.5261 4.45497 13.2039 4.3954 12.8846 4.42917L11.8121 4.54333C11.4291 4.58356 11.0432 4.50159 10.7096 4.30917C10.3775 4.11619 10.1149 3.82302 9.95962 3.47167L9.51795 2.48583C9.38764 2.19238 9.17499 1.94304 8.90578 1.76805C8.63657 1.59306 8.32237 1.49995 8.00128 1.5C7.6802 1.49995 7.366 1.59306 7.09678 1.76805C6.82757 1.94304 6.61492 2.19238 6.48462 2.48583L6.04628 3.47167C5.89098 3.82302 5.62844 4.11619 5.29628 4.30917C4.96269 4.50159 4.57678 4.58356 4.19378 4.54333L3.11795 4.42917C2.7987 4.3954 2.4765 4.45497 2.19043 4.60067C1.90437 4.74637 1.66671 4.97193 1.50628 5.25C1.34565 5.52791 1.26912 5.84646 1.28598 6.16701C1.30285 6.48755 1.41237 6.79632 1.60128 7.05583L2.23628 7.92833C2.46274 8.23976 2.58468 8.61494 2.58461 9C2.58468 9.38506 2.46274 9.76024 2.23628 10.0717L1.60128 10.9442C1.41237 11.2037 1.30285 11.5124 1.28598 11.833C1.26912 12.1535 1.34565 12.4721 1.50628 12.75C1.66687 13.0279 1.90455 13.2534 2.19058 13.399C2.47661 13.5447 2.79872 13.6044 3.11795 13.5708L4.19045 13.4567C4.57345 13.4164 4.95936 13.4984 5.29295 13.6908C5.62634 13.8833 5.89011 14.1765 6.04628 14.5283Z" stroke="#6F767D" stroke-width="1.25" stroke-linecap="round" stroke-linejoin="round"/>
<path d="M7.99994 11.25C9.24258 11.25 10.2499 10.2426 10.2499 9C10.2499 7.75736 9.24258 6.75 7.99994 6.75C6.7573 6.75 5.74994 7.75736 5.74994 9C5.74994 10.2426 6.7573 11.25 7.99994 11.25Z" stroke="#6F767D" stroke-width="1.25" stroke-linecap="round" stroke-linejoin="round"/>
</svg>
