<svg width="13" height="13" viewBox="0 0 13 13" fill="none" xmlns="http://www.w3.org/2000/svg">
<path d="M6.5 0.875V2.28125M10.4775 2.5225L9.48313 3.51688M12.125 6.5H10.7188M10.4775 10.4775L9.48313 9.48313M6.5 10.7188V12.125M3.51688 9.48313L2.5225 10.4775M2.28125 6.5H0.875M3.51688 3.51688L2.5225 2.5225M8.84375 6.5C8.84375 7.1216 8.59682 7.71774 8.15728 8.15728C7.71774 8.59682 7.1216 8.84375 6.5 8.84375C5.8784 8.84375 5.28226 8.59682 4.84272 8.15728C4.40318 7.71774 4.15625 7.1216 4.15625 6.5C4.15625 5.8784 4.40318 5.28226 4.84272 4.84272C5.28226 4.40318 5.8784 4.15625 6.5 4.15625C7.1216 4.15625 7.71774 4.40318 8.15728 4.84272C8.59682 5.28226 8.84375 5.8784 8.84375 6.5V6.5Z" stroke="white" stroke-width="1.5" stroke-linecap="round" stroke-linejoin="round"/>
</svg>
