<svg width="18" height="18" viewBox="0 0 18 18" fill="none" xmlns="http://www.w3.org/2000/svg">
<path d="M6.7629 1.78922C6.7629 1.59139 6.68432 1.40166 6.54443 1.26178C6.40454 1.12189 6.21482 1.0433 6.01699 1.0433C5.81916 1.0433 5.62943 1.12189 5.48954 1.26178C5.34966 1.40166 5.27107 1.59139 5.27107 1.78922V3.04037C4.07378 3.06714 2.87886 3.15944 1.69166 3.31686C1.59456 3.32979 1.50095 3.36172 1.41618 3.41083C1.33141 3.45993 1.25715 3.52526 1.19763 3.60306C1.13811 3.68087 1.09449 3.76964 1.06928 3.8643C1.04406 3.95896 1.03774 4.05767 1.05067 4.15477C1.0636 4.25188 1.09553 4.34549 1.14464 4.43025C1.19374 4.51502 1.25907 4.58928 1.33687 4.64881C1.41468 4.70833 1.50345 4.75194 1.59811 4.77716C1.69278 4.80237 1.79148 4.80869 1.88858 4.79576C3.81707 4.53993 5.76518 4.46401 7.70773 4.56901C7.29614 5.95941 6.72897 7.29893 6.01699 8.56215C5.64513 7.90266 5.31237 7.22187 5.02044 6.52331C4.94087 6.34597 4.79522 6.20671 4.6145 6.13515C4.43378 6.0636 4.23227 6.06541 4.05287 6.1402C3.87346 6.215 3.73034 6.35686 3.65397 6.5356C3.5776 6.71434 3.57401 6.91583 3.64398 7.09717C4.06238 8.0991 4.55852 9.06677 5.12785 9.99133C4.0648 11.5449 2.78245 12.9365 1.32069 14.1227C1.24128 14.1833 1.17485 14.2592 1.12531 14.3459C1.07578 14.4326 1.04417 14.5284 1.03235 14.6275C1.02052 14.7267 1.02873 14.8272 1.05649 14.9231C1.08424 15.0191 1.13097 15.1084 1.19392 15.186C1.25686 15.2635 1.33473 15.3276 1.42291 15.3745C1.51109 15.4214 1.60779 15.45 1.70726 15.4588C1.80674 15.4677 1.90697 15.4564 2.00201 15.4257C2.09705 15.3951 2.18497 15.3456 2.26055 15.2804C3.67978 14.1287 4.9426 12.7967 6.01699 11.3181C6.11147 11.4493 6.20794 11.5786 6.30541 11.7069C6.42542 11.8644 6.60308 11.9678 6.79929 11.9942C6.99551 12.0207 7.19421 11.9682 7.35168 11.8482C7.50915 11.7281 7.6125 11.5505 7.63898 11.3543C7.66547 11.1581 7.61292 10.9594 7.49291 10.8019C7.29002 10.5373 7.09508 10.2668 6.90612 9.99133C7.92323 8.34061 8.70424 6.55563 9.22642 4.68835C9.53473 4.71918 9.84105 4.75598 10.1454 4.79576C10.3415 4.82188 10.54 4.76902 10.6971 4.64881C10.8542 4.5286 10.9572 4.35089 10.9833 4.15477C11.0094 3.95866 10.9566 3.7602 10.8363 3.60306C10.7161 3.44592 10.5384 3.34297 10.3423 3.31686C9.15515 3.15913 7.96021 3.06683 6.7629 3.04037V1.78922Z" fill="#788A95"/>
<path fill-rule="evenodd" clip-rule="evenodd" d="M11.9844 7.01065C12.123 7.01066 12.2589 7.04928 12.3767 7.12218C12.4946 7.19508 12.5898 7.29939 12.6518 7.42339L16.8786 15.8771C16.9233 15.9649 16.9501 16.0606 16.9576 16.1587C16.9651 16.2569 16.9531 16.3555 16.9223 16.449C16.8914 16.5425 16.8424 16.629 16.778 16.7034C16.7136 16.7779 16.6351 16.8389 16.547 16.8829C16.459 16.9268 16.3631 16.9529 16.2648 16.9597C16.1666 16.9664 16.0681 16.9536 15.9748 16.9221C15.8816 16.8905 15.7955 16.8408 15.7215 16.7758C15.6476 16.7109 15.5872 16.6319 15.5439 16.5435L14.7562 14.9671H9.21357L8.42489 16.5435C8.3816 16.6319 8.32124 16.7109 8.24729 16.7758C8.17333 16.8408 8.08725 16.8905 7.994 16.9221C7.90075 16.9536 7.80218 16.9664 7.70396 16.9597C7.60575 16.9529 7.50984 16.9268 7.42176 16.8829C7.33369 16.8389 7.25519 16.7779 7.19079 16.7034C7.12639 16.629 7.07736 16.5425 7.04654 16.449C7.01572 16.3555 7.0037 16.2569 7.0112 16.1587C7.01869 16.0606 7.04554 15.9649 7.09019 15.8771L11.3171 7.42339C11.379 7.29939 11.4742 7.19508 11.5921 7.12218C11.7099 7.04928 11.8458 7.01066 11.9844 7.01065ZM14.0103 13.4753L11.9844 9.42444L9.95949 13.4753H14.0103Z" fill="#788A95"/>
</svg>
