<svg width="14" height="20" viewBox="0 0 14 20" fill="none" xmlns="http://www.w3.org/2000/svg">
<path d="M4.33333 6.53846H3C2.46957 6.53846 1.96086 6.75728 1.58579 7.14678C1.21071 7.53628 1 8.06455 1 8.61538V16.9231C1 17.4739 1.21071 18.0022 1.58579 18.3917C1.96086 18.7812 2.46957 19 3 19H11C11.5304 19 12.0391 18.7812 12.4142 18.3917C12.7893 18.0022 13 17.4739 13 16.9231V8.61538C13 8.06455 12.7893 7.53628 12.4142 7.14678C12.0391 6.75728 11.5304 6.53846 11 6.53846H9.66667M9.66667 3.76923L7 1M7 1L4.33333 3.76923M7 1V12.7692" stroke="#35414D" stroke-opacity="0.2" stroke-width="1.5" stroke-linecap="round" stroke-linejoin="round"/>
</svg>
